<svg xmlns="http://www.w3.org/2000/svg" xmlns:xlink="http://www.w3.org/1999/xlink" xml:space="preserve" id="Слой_1"
	x="0" y="0" style="enable-background:new 0 0 116.4 96.7" version="1.1" viewBox="0 0 116.4 96.7">
	<style>
		.st7 {
			fill: #5065a5
		}

		.st8 {
			fill: none
		}

		.st14 {
			fill: #f7931e
		}
	</style>
	<path id="_x37_b505434-05e4-4733-bd03-7559c80e23bc"
		d="M51.5 65.2c.3-1 .5-2 .6-3 1.3.1 2.9.1 4.6.1 0 1 0 2.1-.1 3.1-.9 6.7-10 11-10 11 1.2-1.5 1.9-3.3 2-5.2 1.1-2 2.1-4 2.9-6z"
		style="fill:#576fed" />
	<path
		d="M94.4 52.5s-2.1 5.1-13.9 7.8c-8.7 2-21.9 2-28.4 1.9-2.4 0-3.8-.1-3.8-.1s1.3 5.7-4.3 11.3c-3.1 3.4-7.4 5.3-12 5.3 0 0 3.3-4.6 4.3-7.8 2.5-1.9 7.8-8.7 7.8-8.7s-5.3-.5-6.8-4.7c-1-2.7-1-7.5-1-7.5-1.9 1.9-3.9 3.6-6.1 5.2-2.8 1.8-7.5 3.4-7.9 3.5.1-.3 2-5.4 3.5-7.8 1.5-2.4 3.5-5.2 3.5-5.2l-2.6-14.9s4.8 1 6.9 3.5c1.6 1.9 3 3.9 4.3 6.1 0 0-.4-6.9 3.5-12.5.6-.8 1.2-1.6 2-2.2.1-.1.3-.2.4-.3.2-.1.4-.2.5-.4.2-.2.5-.3.8-.4 1.9-1 4.2-1.4 6.4-1 1.1.4 2.2.7 3.3.9 1.1.2 2.6-.9 1.2-3.6 2.6.7 5 3.5 5 3.5s1.7-.9-.2-5.3c4.4.4 6.7 7.6 6.7 7.6 0-2.6.1-5.3.4-7.9 2.4 2.2 3.8 5.2 3.9 8.5 0 0 2.2 0 4.2 1.4.9.6 1.7 1.4 2.3 2.6.3.6.5 1.4.6 2.4.3 3.7-.7 9.5-1.3 12.9-.3 1.6-.5 2.6-.5 2.6l2 1.6 3.3-5.5 3.3 4.5.1-.5.1-.3 1.6-6s2.4 2.2 4.3 4.3c.1.1.2.2.3.4 1.1 1.4 1.9 3.1 2.3 4.8z"
		style="fill:#7699ff" />
	<circle id="_x32_4f5393d-4d01-4e9a-994e-955807d4b8cf" cx="58.8" cy="43.8" r="10.3" style="fill:#1d1d1b" />
	<path id="ee505f71-9a0b-4df3-b358-d6d65d15bb5a"
		d="M66.9 43.5c-.3 2.5-1.7 4.8-3.8 6.3 1.3-1.3 2.1-2.9 2.3-4.7.5-3.4-1.8-6.6-5.2-7.2-.4-.1-.7-.1-1.1-.1-4.1.1-7.5 3.2-8.1 7.2-.1.3-.1.7-.1 1.1-.2-.9-.2-1.8-.1-2.7.6-4.5 4.5-7.9 9-8 3.9-.1 7.1 3 7.2 6.8-.1.5-.1.9-.1 1.3z"
		style="opacity:.1;fill:#fff;enable-background:new" />
	<path id="_x34_e30afb6-9b67-4416-9a10-73eb83fa54dc"
		d="M62.3 35.8c1.8.6 3.8 2.4 3 4.1-.6 1.2-2.5-.8-4.3-1.3s-4.5-.5-4-1.8c.8-1.9 3.5-1.6 5.3-1z"
		style="fill:#fff" />
	<path id="_x34_067f20d-e99a-4389-8852-6fcb31bee618"
		d="M86.3 50.2c-4.1.7-8.3.8-12.4.2l3-5.1 2.6 4 3-4.6 3.3 4.5 1.8-6.8 4.3 4.3c.5.6.9 2.3-5.6 3.5z"
		style="fill:#f76f60" />
	<path d="m80.4 63.2.7.1" class="st8" />
	<g id="helment">
		<path d="M67.1 13.3c-.3-.1-.7-.2-1-.3-.2-.1-.5-.1-.7-.1h.6c.3.2.7.3 1.1.4z" style="fill:#d4145a" />
		<defs>
			<path id="SVGID_1_"
				d="M77.8 26.7c-.1.7 0 .8-.2 1.1l-26.7-5.7c1.7-5.8 7.4-10.9 17.6-8.8 6.8 1.4 9.7 7.6 9.3 13.4z" />
		</defs>
		<use xlink:href="#SVGID_1_" style="overflow:visible;fill:#ff8a09" />
		<clipPath id="SVGID_00000008110572726048310500000004371766203171073169_">
			<use xlink:href="#SVGID_1_" style="overflow:visible" />
		</clipPath>
		<path d="m78 27-26.2-5.9h-.3l-1.9.4c-.2.1.4.6.6.7l28.5 6.4c.3.1 1.1 0 1-.2l-1.4-1.1c-.1-.2-.2-.2-.3-.3z"
			style="opacity:.37;clip-path:url(#SVGID_00000008110572726048310500000004371766203171073169_);fill:#df8139" />
		<path d="M71.6 25.9c0 .5.1.6 0 1l-18.8-4.2c2.8-6 7.6-8.1 12.2-6.9 4.6 1.2 6.8 6 6.6 10.1z"
			style="opacity:.83;fill:#df8139" />
		<path d="m77.2 28.1-25.9-5.7H51l-1.9.4c-.2.1.3.4.6.5l27.1 5.8c.3.1 2.4.4 2 .3l-1.3-1.1c-.1-.1-.2-.2-.3-.2z"
			style="fill:#ff8a09;stroke:#ff8a09;stroke-miterlimit:10" />
		<path
			d="m76.7 26.2-2.5-.5c.1-.2 0-.3 0-.7 0-4.3-2.8-8.8-8.5-10.1-.2 0-.4-.1-.5-.1h-.1c-.4-.1.4-.2 1.5 0 6.8.7 10.2 5.6 10.1 10.3v1.1z"
			style="opacity:.26;fill:#ffeccc" />
	</g>
	<g>
		<path d="M23 14.3zM23.7 15.2z" class="st14" />
	</g>
	<g>
		<path
			d="M72.8 68.5c0 .2-.1.3-.3.6-.2.2-.4.5-.7.5-.1 0-.2 0-.4-.1-.2-.2-.2-.4-.3-.8-.1-.2-.2-.3-.5-.8-.5-.6-.8-.9-1-1.2-.4-.4-.7-.8-1.4-1.7-.4-.6-1-1.3-1.5-2.2-.5-.6-1-1.2-1.6-1.8-.3-.4-.6-.7-.9-1.1l-.2-.2 1-.8c1.2 1.7 2.5 3.2 3.2 4 .9 1 2.4 2.7 3.2 3.7.5.6.5.8.9 1.2.2.3.4.5.5.7z"
			class="st7" />
		<path
			d="M67.3 58.2c0 .1 0 .1-.1.1-.2-.1-.5-.2-.8-.2-.4-.1-.7-.1-1-.1 0 0-.4 0-.6.1l-.1.1c0 .1 0 .1.1.2.2.3.3.4.5.7l-.1.1-1.2.9-.8-.8c-.2.1-.4.2-.5.3s-.2.2-.3.4c-.1.1-.1.1-.1.2-.2.2-.4.3-.6.5-.3-.3-.6-.7-.9-1 .2-.2.4-.3.6-.5.3 0 .5-.1.6-.2.1-.1.1-.2.3-.3 0 0 .1-.1.4-.3.1-.1.3-.2.6-.4.3-.3 1-.7 1.8-.8.4-.1 1.2-.2 1.7.3.2.2.4.4.5.7z"
			style="fill:#c2c6d8" />
	</g>
	<path d="m66.5 60.8-.3.3M65.5 61.7l-.2.2" class="st8" />
</svg>