<?xml version="1.0" encoding="utf-8"?>
<!-- Generator: Adobe Illustrator 26.0.1, SVG Export Plug-In . SVG Version: 6.00 Build 0)  -->
<svg version="1.1" id="Слой_1" xmlns="http://www.w3.org/2000/svg" xmlns:xlink="http://www.w3.org/1999/xlink" x="0px" y="0px"
	 viewBox="0 0 116.4 96.7" style="enable-background:new 0 0 116.4 96.7;" xml:space="preserve">
<style type="text/css">
	.st0{fill:#576FED;}
	.st1{fill:#7699FF;}
	.st2{fill:#1D1D1B;}
	.st3{opacity:0.1;fill:#FFFFFF;enable-background:new    ;}
	.st4{fill:#FFFFFF;}
	.st5{fill:#F76F60;}
	.st6{display:none;fill:#FF8A09;}
	.st7{fill:#5065A5;}
	.st8{fill:none;}
	.st9{fill:#D4145A;}
	.st10{opacity:0.37;clip-path:url(#SVGID_00000132810608470304852940000001953719895529034914_);fill:#DF8139;}
	.st11{opacity:0.83;fill:#DF8139;}
	.st12{fill:#FF8A09;stroke:#FF8A09;stroke-miterlimit:10;}
	.st13{opacity:0.26;fill:#FFECCC;}
	.st14{fill:#F7931E;}
	.st15{display:none;fill:#28A745;}
	.st16{display:none;fill:#C2C6D8;}
	.st17{fill:#C2C6D8;}
</style>
<g>
	<path id="_x37_b505434-05e4-4733-bd03-7559c80e23bc" class="st0" d="M51.5,65.2c0.3-1,0.5-2,0.6-3c1.3,0.1,2.9,0.1,4.6,0.1
		c0,1,0,2.1-0.1,3.1c-0.9,6.7-10,11-10,11c1.2-1.5,1.9-3.3,2-5.2C49.7,69.2,50.7,67.2,51.5,65.2z"/>
	<path class="st1" d="M94.4,52.5c0,0-2.1,5.1-13.9,7.8c-8.7,2-21.9,2-28.4,1.9c-2.4,0-3.8-0.1-3.8-0.1s1.3,5.7-4.3,11.3
		c-3.1,3.4-7.4,5.3-12,5.3c0,0,3.3-4.6,4.3-7.8c2.5-1.9,7.8-8.7,7.8-8.7s-5.3-0.5-6.8-4.7c-1-2.7-1-7.5-1-7.5
		c-1.9,1.9-3.9,3.6-6.1,5.2c-2.8,1.8-7.5,3.4-7.9,3.5c0.1-0.3,2-5.4,3.5-7.8c1.5-2.4,3.5-5.2,3.5-5.2l-2.6-14.9c0,0,4.8,1,6.9,3.5
		c1.6,1.9,3,3.9,4.3,6.1c0,0-0.4-6.9,3.5-12.5c0.6-0.8,1.2-1.6,2-2.2c0.1-0.1,0.3-0.2,0.4-0.3c0.2-0.1,0.4-0.2,0.5-0.4
		c0.2-0.2,0.5-0.3,0.8-0.4c1.9-1,4.2-1.4,6.4-1c1.1,0.4,2.2,0.7,3.3,0.9c1.1,0.2,2.6-0.9,1.2-3.6c2.6,0.7,5,3.5,5,3.5
		s1.7-0.9-0.2-5.3c4.4,0.4,6.7,7.6,6.7,7.6c0-2.6,0.1-5.3,0.4-7.9c2.4,2.2,3.8,5.2,3.9,8.5c0,0,2.2,0,4.2,1.4
		c0.9,0.6,1.7,1.4,2.3,2.6c0.3,0.6,0.5,1.4,0.6,2.4c0.3,3.7-0.7,9.5-1.3,12.9c-0.3,1.6-0.5,2.6-0.5,2.6l2,1.6l3.3-5.5l3.3,4.5
		l0.1-0.5l0.1-0.3l1.6-6c0,0,2.4,2.2,4.3,4.3c0.1,0.1,0.2,0.2,0.3,0.4v0C93.2,49.1,94,50.8,94.4,52.5z"/>
	<circle id="_x32_4f5393d-4d01-4e9a-994e-955807d4b8cf" class="st2" cx="58.8" cy="43.8" r="10.3"/>
	<path id="ee505f71-9a0b-4df3-b358-d6d65d15bb5a" class="st3" d="M66.9,43.5c-0.3,2.5-1.7,4.8-3.8,6.3c1.3-1.3,2.1-2.9,2.3-4.7
		c0.5-3.4-1.8-6.6-5.2-7.2c0,0,0,0,0,0c-0.4-0.1-0.7-0.1-1.1-0.1c-4.1,0.1-7.5,3.2-8.1,7.2c-0.1,0.3-0.1,0.7-0.1,1.1l0,0
		c-0.2-0.9-0.2-1.8-0.1-2.7c0.6-4.5,4.5-7.9,9-8c3.9-0.1,7.1,3,7.2,6.8C66.9,42.7,66.9,43.1,66.9,43.5z"/>
	<path id="_x34_e30afb6-9b67-4416-9a10-73eb83fa54dc" class="st4" d="M62.3,35.8c1.8,0.6,3.8,2.4,3,4.1c-0.6,1.2-2.5-0.8-4.3-1.3
		s-4.5-0.5-4-1.8C57.8,34.9,60.5,35.2,62.3,35.8z"/>
	<path id="_x34_067f20d-e99a-4389-8852-6fcb31bee618" class="st5" d="M86.3,50.2c-4.1,0.7-8.3,0.8-12.4,0.2l3-5.1l2.6,4l3-4.6
		l3.3,4.5l1.8-6.8l4.3,4.3C92.4,47.3,92.8,49,86.3,50.2z"/>
</g>
<path class="st6" d="M75.7,26.6l-24.5-3.8c1.2-5.1,5.6-10,13.9-9.9c0.2,0,0.5,0,0.7,0.1c6.8,1,10.1,7,10,12.7
	C75.7,26.2,75.8,26.4,75.7,26.6z"/>
<path class="st7" d="M85.8,30.2"/>
<line class="st8" x1="80.4" y1="63.2" x2="81.1" y2="63.3"/>
<g id="helment">
	<path class="st9" d="M67.1,13.3c-0.3-0.1-0.7-0.2-1-0.3c-0.2-0.1-0.5-0.1-0.7-0.1c0.1,0,0.2,0,0.3,0c0.1,0,0.2,0,0.3,0
		C66.3,13.1,66.7,13.2,67.1,13.3z"/>
	<g>
		<defs>
			<path id="SVGID_1_" d="M77.8,26.7c-0.1,0.7,0,0.8-0.2,1.1l-26.7-5.7c1.7-5.8,7.4-10.9,17.6-8.8C75.3,14.7,78.2,20.9,77.8,26.7z"
				/>
		</defs>
		<use xlink:href="#SVGID_1_"  style="overflow:visible;fill:#FF8A09;"/>
		<clipPath id="SVGID_00000008110572726048310500000004371766203171073169_">
			<use xlink:href="#SVGID_1_"  style="overflow:visible;"/>
		</clipPath>
		<path style="opacity:0.37;clip-path:url(#SVGID_00000008110572726048310500000004371766203171073169_);fill:#DF8139;" d="M78,27
			l-26.2-5.9c-0.1,0-0.2,0-0.3,0l-1.9,0.4c-0.2,0.1,0.4,0.6,0.6,0.7l28.5,6.4c0.3,0.1,1.1,0,1-0.2l-1.4-1.1
			C78.2,27.1,78.1,27.1,78,27z"/>
	</g>
	<path class="st11" d="M71.6,25.9c0,0.5,0.1,0.6,0,1l-18.8-4.2c2.8-6,7.6-8.1,12.2-6.9C69.6,17,71.8,21.8,71.6,25.9z"/>
	<path class="st12" d="M77.2,28.1l-25.9-5.7c-0.1,0-0.2,0-0.3,0l-1.9,0.4c-0.2,0.1,0.3,0.4,0.6,0.5l27.1,5.8c0.3,0.1,2.4,0.4,2,0.3
		l-1.3-1.1C77.4,28.2,77.3,28.1,77.2,28.1z"/>
	<path class="st13" d="M76.7,26.2l-2.5-0.5c0.1-0.2,0-0.3,0-0.7c0-4.3-2.8-8.8-8.5-10.1c0,0,0,0,0,0c-0.2,0-0.4-0.1-0.5-0.1
		c0,0,0,0-0.1,0c-0.4-0.1,0.4-0.2,1.5,0c6.8,0.7,10.2,5.6,10.1,10.3C76.7,25.6,76.7,25.8,76.7,26.2z"/>
</g>
<path class="st14" d="M103.5,29.8"/>
<g>
	<path class="st15" d="M20,10.7c-0.1,0-0.1,0-0.2,0.1l-3.4,2.4l0.4,0.9c0,0.1,0.1,0.1,0.1,0.2l1.5,1.4l0.8-0.7l1.8-1.6l1.2-1
		l-1.1-1.5c0-0.1-0.1-0.1-0.2-0.1L20,10.7z M21.4,12l-3.2,2.5L17.4,14l-0.3-0.6l3-2.2l0.8,0.1L21.4,12z"/>
	<path class="st16" d="M24.9,15.3c-0.4,0.4-0.7,0.9-1.1,1.3c0.6-0.1,1.1-0.3,1.7-0.4c-0.3,0.5-0.5,0.9-0.8,1.4
		c0.5-0.2,1-0.3,1.5-0.4c-0.3,0.4-0.5,0.9-0.8,1.3c0,0,0,0,0,0c0.5-0.2,1-0.3,1.5-0.4c-0.3,0.5-0.5,0.9-0.7,1.4c0,0,0,0,0,0
		c0.5-0.1,1.1-0.2,1.6-0.2c-0.3,0.4-0.5,0.9-0.7,1.3c0.5-0.1,0.9-0.3,1.4-0.4c0,0,0,0,0,0c-0.2,0.4-0.4,0.9-0.6,1.3
		c0.5-0.1,0.9-0.1,1.4-0.2c-0.2,0.3-0.4,0.7-0.6,1c0.4-0.1,0.9-0.1,1.3-0.2c-0.2,0.4-0.3,0.8-0.5,1.2c0.4,0,0.9,0,1.3,0
		c0,0,0,0,0.1,0c-0.9,0.6-1.7,1.3-2.4,2.1c-3.3-3.3-6.7-6.7-10-10c1.3-1.1,2-1.8,3.9-3.2c-0.2,0.6-0.4,1.1-0.5,1.7
		c0.6-0.2,1.1-0.4,1.7-0.6c-0.3,0.5-0.7,0.9-1,1.4c0.6-0.2,1.1-0.3,1.7-0.4c-0.3,0.5-0.7,0.9-1,1.4C23.8,15.6,24.3,15.5,24.9,15.3z"
		/>
	<polygon class="st14" points="23,14.3 23,14.3 23,14.3 	"/>
	<polygon class="st14" points="23.7,15.2 23.7,15.2 23.7,15.2 	"/>
</g>
<g>
	<path class="st7" d="M72.8,68.5c0,0.2-0.1,0.3-0.3,0.6c-0.2,0.2-0.4,0.5-0.7,0.5c-0.1,0-0.2,0-0.4-0.1c-0.2-0.2-0.2-0.4-0.3-0.8
		c-0.1-0.2-0.2-0.3-0.5-0.8c-0.5-0.6-0.8-0.9-1-1.2c-0.4-0.4-0.7-0.8-1.4-1.7c-0.4-0.6-1-1.3-1.5-2.2c-0.5-0.6-1-1.2-1.6-1.8
		c-0.3-0.4-0.6-0.7-0.9-1.1c-0.1-0.1-0.2-0.2-0.2-0.2l1-0.8c1.2,1.7,2.5,3.2,3.2,4c0.9,1,2.4,2.7,3.2,3.7c0.5,0.6,0.5,0.8,0.9,1.2
		C72.5,68.1,72.7,68.3,72.8,68.5z"/>
	<path class="st17" d="M67.3,58.2c0,0.1,0,0.1-0.1,0.1c-0.2-0.1-0.5-0.2-0.8-0.2C66,58,65.7,58,65.4,58c0,0-0.4,0-0.6,0.1
		c-0.1,0.1-0.1,0.1-0.1,0.1c0,0.1,0,0.1,0.1,0.2c0.2,0.3,0.3,0.4,0.5,0.7c0,0-0.1,0.1-0.1,0.1c0,0,0,0,0,0L64,60.1l0,0
		c-0.3-0.3-0.5-0.5-0.8-0.8c-0.2,0.1-0.4,0.2-0.5,0.3s-0.2,0.2-0.3,0.4c-0.1,0.1-0.1,0.1-0.1,0.2c-0.2,0.2-0.4,0.3-0.6,0.5
		c-0.3-0.3-0.6-0.7-0.9-1c0.2-0.2,0.4-0.3,0.6-0.5c0.3,0,0.5-0.1,0.6-0.2c0.1-0.1,0.1-0.2,0.3-0.3c0,0,0.1-0.1,0.4-0.3
		c0.1-0.1,0.3-0.2,0.6-0.4c0.3-0.3,1-0.7,1.8-0.8c0.4-0.1,1.2-0.2,1.7,0.3C67,57.7,67.2,57.9,67.3,58.2z"/>
</g>
<line class="st8" x1="66.5" y1="60.8" x2="66.2" y2="61.1"/>
<line class="st8" x1="65.5" y1="61.7" x2="65.3" y2="61.9"/>
</svg>
