<svg xmlns="http://www.w3.org/2000/svg" xmlns:xlink="http://www.w3.org/1999/xlink" xml:space="preserve" id="Слой_1" x="0" y="0" version="1.1" viewBox="0 0 116.4 96.7"><style>.st1{fill:#c2c6d8}.st11{fill:#5065a5}</style><defs><rect id="SVGID_1_" width="1.9" height="5.4" x="48.9" y="18" transform="rotate(-180 49.864 20.749)"/></defs><use xlink:href="#SVGID_1_" fill="#c2c6d8" overflow="visible"/><clipPath id="SVGID_00000004530779785589912030000004884754046456867246_"><use xlink:href="#SVGID_1_" overflow="visible"/></clipPath><g id="base" clip-path="url(#SVGID_00000004530779785589912030000004884754046456867246_)"><path d="M70.2 24v.4s-2.4-7.5-7-7.9c0 .1.1.2.1.3.1.1.1.2.1.3.1.1.1.3.2.4 0 .1.1.3.1.4 1 3.2-.4 4-.4 4s-2.6-3.1-5.4-3.8c1.5 2.9-.1 4-1.3 3.8-1.2-.2-2.4-.5-3.5-.9-4.2-.7-8.4 1.1-10.8 4.6-3 4.3-3.6 9.4-3.7 11.8v1.4L49.3 44v-.1c-1-6.6 4-13 10.6-13.7 6.9-.7 12.8 4.4 13.3 11.1l8.8-3.4.5-.2c.4-3.4.4-6.8-.4-8.5-2.1-4.2-7-4.2-7-4.2-.1-3.5-1.6-6.8-4.2-9.1v.4c-.2 1.8-.3 3.6-.4 5.4v.5l-.3 1.8z" class="st1"/></g><defs><path id="SVGID_00000083770944480217490820000014514067224505139891_" d="M53.7 14.7c-.2 1.8-1.8 3.1-3.4 3.5 0 0-3.9.3-5.4.7-1.5.5-4.8 2.4-7.2 1.8-1.4-.3-2.2-1.1-2.9-2.1-.7-.9-1-1.5-1-1.5 1.2.2 3.6.3 5.7-.3 4.2-1.4 4.9-4.6 8.4-5 2.5-.3 6 1.1 5.8 2.9z"/></defs><use xlink:href="#SVGID_00000083770944480217490820000014514067224505139891_" fill="#5065a5" overflow="visible"/><clipPath id="SVGID_00000153680198105057676300000010536920142096883376_"><use xlink:href="#SVGID_00000083770944480217490820000014514067224505139891_" overflow="visible"/></clipPath><path fill="#5065a5" stroke="#c8d6ff" stroke-miterlimit="10" stroke-width=".25" d="M24.3 27.1c1 .9 2.8 2.3 5.3 2.4 2.7.2 5.1-1.2 6-1.6 1.2-.7 1.3-1.1 2.1-1.2 2.6-.1 3.5.4 5.2 1.3 1 .5 1.9 1.1 2.5 1.5M33 16.8c1.2.7 3.2 1.7 5.6 1.4 2.7-.3 4.8-2.1 5.6-2.7 1.2-.9 1.6-1.1 2.4-1.4 1.9-.8 3-.3 4.9.3 1.1.3 2 .7 2.7 1.1" clip-path="url(#SVGID_00000153680198105057676300000010536920142096883376_)"/><path fill="none" stroke="#c8d6ff" stroke-miterlimit="10" stroke-width=".25" d="M33.6 17c1.1.9 2.9 2.1 5.4 2.2 2.7 0 5.1-1.5 5.9-1.9 1.3-.7 1.7-.8 2.5-1 2-.5 3 .1 4.8.9 1.1.5 1.9 1 2.6 1.4" clip-path="url(#SVGID_00000153680198105057676300000010536920142096883376_)"/><g><path id="_x37_b505434-05e4-4733-bd03-7559c80e23bc" fill="#576fed" d="M51.5 65.2c.3-1 .5-2 .6-3 1.3.1 2.9.1 4.6.1 0 1 0 2.1-.1 3.1-.9 6.7-10 11-10 11 1.2-1.5 1.9-3.3 2-5.2 1.1-2 2.1-4 2.9-6z"/><path fill="#7699ff" d="M94.4 52.5s-2.1 5.1-13.9 7.8c-8.7 2-21.9 2-28.4 1.9-2.4 0-3.8-.1-3.8-.1s.1.3.1.9c.1 1.2 0 3.6-1.4 6.3-.7 1.3-1.6 2.7-3 4.1-3.1 3.4-7.4 5.3-12 5.3l.1-.1c.5-.7 2.9-4.2 4-7 .1-.2.2-.5.2-.7 2-1.5 5.6-5.9 7.1-7.8.4-.6.7-.9.7-.9s-5.3-.5-6.8-4.7c-1-2.7-1-7.5-1-7.5l-.8.8c-1.6 1.6-3.4 3.1-5.2 4.4-.1.1-.2.1-.3.2-2.8 1.7-7.3 3.2-7.6 3.3.1-.3 2-5.4 3.5-7.8 1.5-2.4 3.5-5.2 3.5-5.2l-2.5-14.5-.1-.3s4.8 1 6.9 3.5c1.3 1.5 2.5 3.2 3.6 4.9v1.3l10.2 5c-.1-.6-.1-1.2-.1-1.7 0-6.4 5.2-11.5 11.5-11.5 6.1 0 11.1 4.7 11.5 10.7l8.4-3.3c-.3 2.5-.8 5.1-1.1 6.9-.3 1.6-.5 2.6-.5 2.6l.4.3 1.6 1.3 3.3-5.5.4.6 2.9 3.9.1-.2.1-.3.1-.3 1.6-6 .6.6c.8.8 2.4 2.3 3.7 3.8.1.1.2.2.3.4.9 1.2 1.7 2.9 2.1 4.6z"/><circle id="_x32_4f5393d-4d01-4e9a-994e-955807d4b8cf" cx="58.8" cy="43.8" r="10.3" fill="#1d1d1b"/><path id="ee505f71-9a0b-4df3-b358-d6d65d15bb5a" fill="#fff" d="M66.9 43.5c-.3 2.5-1.7 4.8-3.8 6.3 1.3-1.3 2.1-2.9 2.3-4.7.5-3.4-1.8-6.6-5.2-7.2-.4-.1-.7-.1-1.1-.1-4.1.1-7.5 3.2-8.1 7.2-.1.3-.1.7-.1 1.1-.2-.9-.2-1.8-.1-2.7.6-4.5 4.5-7.9 9-8 3.9-.1 7.1 3 7.2 6.8-.1.5-.1.9-.1 1.3z" opacity=".1"/><path id="_x34_e30afb6-9b67-4416-9a10-73eb83fa54dc" fill="#fff" d="M62.3 35.8c1.8.6 3.8 2.4 3 4.1-.6 1.2-2.5-.8-4.3-1.3s-4.5-.5-4-1.8c.8-1.9 3.5-1.6 5.3-1z"/><path id="_x34_067f20d-e99a-4389-8852-6fcb31bee618" fill="#f76f60" d="M86.3 50.2c-4.1.7-8.3.8-12.4.2l3-5.1 2.6 4 3-4.6 3.3 4.5 1.8-6.8 4.3 4.3c.5.6.9 2.3-5.6 3.5z"/></g><g id="base_00000030445081718312021990000014445120946511795089_"><path d="m79.2 39.5-.5.2-.4.2-.3.1-7.7 3c-.1-1.4-.4-2.7-1-3.9l-.6-1.2c-2.2-3.7-6.4-6.1-11.2-5.6-6.4.7-11.1 6.9-10.2 13.2l-10.2-5V38.1c.1-1.6.5-3.7 1.3-6 .5-1.9 1.2-4 2.5-6.1.3-.6 1-1.2 1-1.2 1.4-1.5 4.6-5.3 13.4-5.6 1.7-.1 3.3.1 5 .4 1 .2 2 .3 3 .6s2.3.7 3.3 1.1c1.3.5 2.5 1.4 4 2.5.8.7 1.7 1.5 2.4 2.3 1.2 1.2 2.3 2.6 2.8 3.4.3.5 1.5 2.7 1.9 3.8.7 1.8 1.4 4.1 1.5 6.2z" class="st1"/></g><g id="scrowd"><path d="M82.5 66.5c-3.4-1.1-12.9-4-18.8-5.8l.7-2.2 17.8 7.8.3.2z" class="st1"/><path fill="#d6dae8" d="m63.2 62.7.6-2c5.9 1.9 15.3 4.7 18.7 5.8l-19.3-3.8z"/><path d="M62.1 64.9c.2 0 .4.1.5.1.3 0 .5-.2.5-.5.1-2.7.9-5.1 2.2-6.9.2-.2.1-.5-.1-.7-.1-.1-.3-.2-.4-.3-.2-.2-.5-.1-.7.1-1.5 2-2.4 4.6-2.6 7.6.1.2.3.6.6.6z" class="st11"/><path d="m59.8 58.9-.3.8c-.1.2 0 .3.2.4l3.5 1.1c.2.1.3 0 .4-.2l.3-.8c.1-.2 0-.3-.2-.4l-3.5-1.1c-.2 0-.4 0-.4.2z" class="st11"/></g><g><defs><polygon id="SVGID_00000182498957841019947660000010085733241911752889_" points="55.5 32.6 77.3 30.9 75.3 20.9"/></defs><clipPath id="SVGID_00000090997710022486898770000015263629689269186214_"><use xlink:href="#SVGID_00000182498957841019947660000010085733241911752889_" overflow="visible"/></clipPath><defs><polygon id="SVGID_00000120550083715690822960000015115164157075045815_" points="55.5 32.6 77.3 30.9 75.3 20.9"/></defs><use xlink:href="#SVGID_00000120550083715690822960000015115164157075045815_" fill="#d6dae8" overflow="visible"/><clipPath id="SVGID_00000070109410076265881590000000830951832331164572_"><use xlink:href="#SVGID_00000120550083715690822960000015115164157075045815_" overflow="visible"/></clipPath><line x1="65.3" x2="66.1" y1="26.2" y2="32.1" fill="#d6dae8" stroke="#eaecf4" stroke-miterlimit="10" stroke-width=".75" clip-path="url(#SVGID_00000070109410076265881590000000830951832331164572_)"/><line x1="69.7" x2="70.7" y1="24" y2="31.5" fill="#d6dae8" stroke="#eaecf4" stroke-miterlimit="10" stroke-width=".75" clip-path="url(#SVGID_00000070109410076265881590000000830951832331164572_)"/><line x1="73.6" x2="75.3" y1="22" y2="31.2" fill="#d6dae8" stroke="#eaecf4" stroke-miterlimit="10" stroke-width=".75" clip-path="url(#SVGID_00000070109410076265881590000000830951832331164572_)"/><g><defs><polygon id="SVGID_00000147201753808372597650000016618515137653128859_" points="55.5 32.6 77.3 30.9 75.3 20.9"/></defs><clipPath id="SVGID_00000133511242448535848580000000042720280490717072_"><use xlink:href="#SVGID_00000147201753808372597650000016618515137653128859_" overflow="visible"/></clipPath></g></g></svg>