<svg xmlns="http://www.w3.org/2000/svg" xmlns:xlink="http://www.w3.org/1999/xlink" xml:space="preserve" id="Слой_1"
	x="0" y="0" style="enable-background:new 0 0 116.4 96.7" version="1.1" viewBox="0 0 116.4 96.7">
	<defs>
		<path id="reuse-0"
			d="M85 6.4C81.9-3.5 71-4 61.8-7.6l-14.2-.2C43.2-4 40.2-2.6 38.3 2.8c-1.4 3.8-1.5 7.9.4 11.7 4.4 8.8 12.7 10 21.7 13.5l12.2.2c5.2-2.6 8.9-3.4 11.3-8.5 2-4.4 2.7-8.5 1.1-13.3z"
			class="st17" />
		<path id="reuse-1"
			d="M71.1 16.8c-7.5-.4-14.4-2.3-20.6-5.4-.7-.4-1-1.2-.6-1.8.5-.7.9-1.5 1.4-2.3.3-.6 1.1-.9 1.8-.6 5.6 2.8 11.8 4.5 18.7 4.8.8 0 1.4.6 1.4 1.3l-.3 2.7c-.1.8-.9 1.4-1.8 1.3z"
			class="st17" />
		<path id="SVGID_00000145025506187900268950000001100108655744622776_"
			d="M72.5 29.1c-7.1.5-13.9-.7-20.2-3.1-.7-.3-1-.9-.8-1.5.4-.7.8-1.5 1.1-2.2.3-.5 1-.7 1.6-.5 5.8 2.2 12 3.2 18.5 2.7.7-.1 1.3.4 1.3 1V28c0 .5-.7 1.1-1.5 1.1z" />
	</defs>
	<style>
		.st6,
		.st7 {
			fill: none;
			stroke: #c2c6d8;
			stroke-miterlimit: 10
		}

		.st7 {
			stroke: #eaecf4;
			stroke-width: 1.5
		}

		.st12 {
			fill: #273868
		}

		.st16 {
			opacity: 9.000000e-02
		}

		.st17 {
			fill: #211f1f
		}

		.st21 {
			fill: #273868;
			stroke: #5065a5;
			stroke-width: .2;
			stroke-miterlimit: 10
		}
	</style>
	<g id="peerania">
		<path id="_x37_b505434-05e4-4733-bd03-7559c80e23bc"
			d="M51.5 65.2c.3-1 .5-2 .6-3 1.3.1 2.9-.5 4.6-.5 0 1 0 2.7-.1 3.7-.9 6.8-10 11-10 11 1.2-1.5 1.9-3.3 2-5.2 1.1-2 2.1-4 2.9-6z"
			style="fill:#576fed" />
		<path
			d="M94.4 52.5s-2.1 5.1-13.9 7.8c-7 1.6-16.9 1.9-23.8 1.9h-4.6c-2.3 0-3.7-.1-3.7-.1s1.3 5.7-4.3 11.3c-3.1 3.4-7.4 5.3-12 5.3 0 0 3.3-4.6 4.3-7.8 2.5-1.9 7.8-8.7 7.8-8.7s-5.3-.5-6.8-4.7c-1-2.7-1-7.5-1-7.5-1.9 1.9-3.9 3.6-6.1 5.2-2.8 1.8-7.6 3.4-7.9 3.5.1-.3 2-5.4 3.5-7.8 1.5-2.4 3.5-5.2 3.5-5.2l-2.6-14.9s4.8 1 6.9 3.5c1.6 1.9 3 3.9 4.3 6.1 0 0-.4-6.9 3.5-12.5.6-.8 1.2-1.6 2-2.2.1-.1.3-.2.4-.3.2-.1.3-.2.5-.4.2-.1.5-.3.8-.4.8-.4 1.6-.7 2.5-.9 1.3-.3 2.6-.3 3.9-.1 1.1.4 2.2.7 3.3.9 1.1.2 2.6-.9 1.2-3.6.6.2 1.2.4 1.8.8 1.8 1.1 3.2 2.7 3.2 2.7s1.7-.9-.2-5.3c4.4.4 6.7 7.6 6.7 7.6 0-2.6.1-5.3.4-7.9 2.4 2.2 3.8 5.2 3.9 8.5 0 0 2.2 0 4.2 1.4.9.6 1.7 1.4 2.3 2.6.3.6.5 1.4.6 2.4.3 3.7-.7 9.4-1.3 12.8-.3 1.6-.6 2.6-.6 2.6l2 1.6 3.3-5.5 3.3 4.5.1-.5.1-.3 1.6-6s2.4 2.2 4.3 4.3c.1.1.2.2.3.4 1.1 1.5 1.9 3.2 2.3 4.9z"
			style="fill:#7699ff" />
		<circle id="_x32_4f5393d-4d01-4e9a-994e-955807d4b8cf" cx="58.8" cy="43.8" r="10.3" style="fill:#1d1d1b" />
		<path id="ee505f71-9a0b-4df3-b358-d6d65d15bb5a"
			d="M66.8 43.5c-.3 2.5-1.7 4.8-3.8 6.2 1.2-1.3 2.1-2.9 2.3-4.7.5-3.4-1.8-6.6-5.2-7.2-.4 0-.7-.1-1.1-.1-4.1.1-7.5 3.2-8.1 7.2 0 .3-.1.7-.1 1-.2-.9-.2-1.8-.1-2.7.6-4.5 4.5-7.9 9-8 3.9-.1 7.1 3 7.2 6.8 0 .7 0 1.1-.1 1.5z"
			style="opacity:.1;fill:#fff;enable-background:new" />
		<path id="_x34_e30afb6-9b67-4416-9a10-73eb83fa54dc"
			d="M62.3 35.8c1.8.6 3.8 2.4 3 4.1-.6 1.2-2.5-.8-4.3-1.3s-4.5-.5-4-1.8c.8-1.9 3.5-1.6 5.3-1z"
			style="fill:#fff" />
		<path id="_x34_067f20d-e99a-4389-8852-6fcb31bee618"
			d="M86.3 50.2c-4.1.7-8.3.8-12.4.2l3-5.1 2.6 4 3-4.6 3.3 4.5 1.8-6.8 4.3 4.3c.5.5.9 2.3-5.6 3.5z"
			style="fill:#f76f60" />
	</g>
	<path d="M49.4 23c1.8-1.7 3.5-2.9 5.5-2.9 1.2 0 1.7-.1 3.3.9l1.7 1.4" class="st6" />
	<g id="hedphones">
		<path d="M44.1 47.6c-.6-2.5-.7-4.6-.8-8.2 0-.5 0-1 .1-1.6.6-6.7 3.2-12.4 7.1-15.7" class="st6" />
		<path d="M48.8 22.2c1.9-1.9 3.8-3.1 6-3.1 1.3 0 1.8-.1 3.7 1l1.8 1.5" class="st7" />
		<path d="M43.3 49.7c-.8-2.7-1-4.9-1.2-8.8v-1.7c.3-7.2 2.9-13.4 7-17.3" class="st7" />
		<path
			d="M41.4 40.7h.9l2.1.1c.2 0 1.2.1 1.9.9.5.5.7 1.3.7 2l-.2 5.2c-.1 1.6-1.4 2.8-2.9 2.7l-3.1-.1c-1.5-.1-2.7-1.4-2.6-3l.2-5.2c.2-1.5 1.5-2.7 3-2.6z"
			style="fill:#d6dae8" />
		<path
			d="M41 40.1h.9l2.1.1c.2 0 1.2.1 1.9.9.5.5.7 1.4.7 2.1l-.2 5.4c-.1 1.7-1.4 2.9-2.9 2.8l-3.1-.1c-1.5-.1-2.7-1.5-2.6-3.1l.2-5.4c.2-1.6 1.5-2.8 3-2.7z"
			style="fill:#c2c6d8" />
		<path
			d="m41.3 41.8 2.2.1c1.1.1 1.9 1 1.9 2.1l-.2 3.7c-.1 1.1-1 2-2.1 2l-2.2-.1c-1.1-.1-1.9-1-1.9-2.1l.2-3.7c.1-1.2 1-2.1 2.1-2z"
			style="fill:#eaecf4" />
	</g>
	<g>
		<path
			d="M72 27.6c-8-.8-14.7-2.4-17.8-4.1 0-.5-.1-1-.1-1.4.1-2 1.1-4 2.7-5.8 4.4-4.5 7.5-8 11.9-6.3 4.5 1.8 2.5 5.9 3.8 12.2.5 2.2.3 3.9-.5 5.4z"
			class="st12" />
		<defs>
			<path id="SVGID_1_"
				d="M54.1 22.1c0-1.1.3-2 .6-2.7v-.1c7.7 3.2 14.8 3.4 17.8 4.1 0 .5.1 1 .1 1.4 0 .6-.3 1.4-.5 2" />
		</defs>
		<clipPath id="SVGID_00000081616746135122874170000001449610986035769741_">
			<use xlink:href="#SVGID_1_" style="overflow:visible" />
		</clipPath>
		<g style="clip-path:url(#SVGID_00000081616746135122874170000001449610986035769741_)">
			<defs>
				<filter id="Adobe_OpacityMaskFilter" width="55.4" height="66.6" x="33.7" y="-22"
					filterUnits="userSpaceOnUse">
					<feColorMatrix values="1 0 0 0 0 0 1 0 0 0 0 0 1 0 0 0 0 0 1 0" />
				</filter>
			</defs>
			<mask id="SVGID_00000133515031913377589430000001527950496163383230_" width="55.4" height="66.6" x="33.7"
				y="-22" maskUnits="userSpaceOnUse">
				<g style="filter:url(#Adobe_OpacityMaskFilter)">
					<image xlink:href="5123905.jpg" width="58" height="69"
						style="overflow:visible;enable-background:new"
						transform="rotate(.719 1923.153 2549.873) scale(1.01658)" />
				</g>
			</mask>
			<g style="mask:url(#SVGID_00000133515031913377589430000001527950496163383230_)">
				<g class="st16">
					<path
						d="M85.2-7.8c-3.1-9.9-14-10.4-23.2-14L47.8-22c-4.4 3.8-7.4 5.2-9.3 10.6-1.4 3.8-1.5 7.9.3 11.6 4.4 8.8 12.7 10 21.7 13.5l12.2.2c5.2-2.6 8.9-3.4 11.3-8.5 2.1-4.3 2.8-8.4 1.2-13.2z"
						class="st17" />
					<path
						d="M71.2 2.6C63.7 2.2 56.8.3 50.6-2.8c-.7-.4-1-1.2-.6-1.8.6-.8 1-1.6 1.4-2.4.3-.6 1.1-.9 1.8-.6C58.8-4.8 65.1-3.1 72-2.8c.8 0 1.4.6 1.4 1.3l-.3 2.7c-.1.9-.9 1.5-1.9 1.4z"
						class="st17" />
					<use xlink:href="#reuse-0" class="st17" />
					<use xlink:href="#reuse-1" class="st17" />
				</g>
				<g class="st16">
					<use xlink:href="#reuse-0" class="st17" />
					<use xlink:href="#reuse-1" class="st17" />
				</g>
				<g style="opacity:8.000000e-02">
					<g style="enable-background:new">
						<image xlink:href="512390C.png" width="54" height="40" style="overflow:visible"
							transform="rotate(.719 -238.39 2695.848) scale(1.01658)" />
					</g>
				</g>
				<path
					d="M70.9 31.1c-7.5-.4-14.4-2.3-20.6-5.4-.7-.4-1-1.2-.6-1.8.5-.8.9-1.6 1.4-2.3.3-.6 1.1-.9 1.8-.6 5.6 2.8 11.8 4.5 18.7 4.8.8 0 1.4.6 1.4 1.3l-.3 2.7c-.1.8-.9 1.4-1.8 1.3z"
					class="st12" />
			</g>
		</g>
		<g>
			<defs>
				<use xlink:href="#SVGID_00000145025506187900268950000001100108655744622776_" />
			</defs>
			<clipPath id="SVGID_00000174562529923747349050000006732699587348143509_">
				<use xlink:href="#SVGID_00000145025506187900268950000001100108655744622776_" style="overflow:visible" />
			</clipPath>
			<defs>
				<use xlink:href="#SVGID_00000145025506187900268950000001100108655744622776_"
					id="SVGID_00000161619475642348750570000010722585609841298858_" />
			</defs>
			<use xlink:href="#SVGID_00000161619475642348750570000010722585609841298858_"
				style="overflow:visible;fill:#273868" />
			<clipPath id="SVGID_00000036215685466625205210000012065412291009772217_">
				<use xlink:href="#SVGID_00000161619475642348750570000010722585609841298858_" style="overflow:visible" />
			</clipPath>
			<path d="M66.8 21.4c0 .2.1.3.2.3"
				style="clip-path:url(#SVGID_00000036215685466625205210000012065412291009772217_);fill:#273868" />
			<g style="clip-path:url(#SVGID_00000036215685466625205210000012065412291009772217_)">
				<path
					d="M71.4 23.3c.4 2.9.8 5.8 1.1 8.7M69 23.7c.1 3.2 0 6.5-.1 9.7M65.5 22.9c-.4 3.3-.9 6.6-1.5 9.9M61.8 22.2c-.7 3-1.6 5.9-2.7 8.8M58.5 21.1c-1 2.8-2.1 5.6-3.4 8.3M56.7 19.9c-1.3 2.6-2.8 5.1-4.4 7.5"
					class="st21" />
			</g>
			<g>
				<defs>
					<use xlink:href="#SVGID_00000145025506187900268950000001100108655744622776_"
						id="SVGID_00000121960434254044826020000008508979307850952625_" />
				</defs>
				<clipPath id="SVGID_00000168078578317533122710000001882492278702502572_">
					<use xlink:href="#SVGID_00000121960434254044826020000008508979307850952625_"
						style="overflow:visible" />
				</clipPath>
			</g>
		</g>
	</g>
</svg>>
				</defs>
				<clipPath id="SVGID_00000168078578317533122710000001882492278702502572_">
					<use xlink:href="#SVGID_00000121960434254044826020000008508979307850952625_"
						style="overflow:visible;" />
				</clipPath>
			</g>
		</g>
	</g>
</svg>