<?xml version="1.0" encoding="utf-8"?>
<!-- Generator: Adobe Illustrator 26.0.1, SVG Export Plug-In . SVG Version: 6.00 Build 0)  -->
<svg version="1.1" id="Слой_1" xmlns="http://www.w3.org/2000/svg" xmlns:xlink="http://www.w3.org/1999/xlink" x="0px" y="0px"
	 viewBox="0 0 116.4 96.7" style="enable-background:new 0 0 116.4 96.7;" xml:space="preserve">
<style type="text/css">
	.st0{fill:#576FED;}
	.st1{fill:#7699FF;}
	.st2{fill:#1D1D1B;}
	.st3{opacity:0.1;fill:#FFFFFF;enable-background:new    ;}
	.st4{fill:#FFFFFF;}
	.st5{fill:#F76F60;}
	.st6{fill:none;stroke:#C2C6D8;stroke-miterlimit:10;}
	.st7{fill:none;stroke:#EAECF4;stroke-width:1.5;stroke-miterlimit:10;}
	.st8{fill:none;}
	.st9{fill:#D6DAE8;}
	.st10{fill:#C2C6D8;}
	.st11{fill:#EAECF4;}
	.st12{fill:#273868;}
	.st13{clip-path:url(#SVGID_00000015353102777852851750000016184880679456960191_);}
	.st14{filter:url(#Adobe_OpacityMaskFilter);}
	.st15{mask:url(#SVGID_00000133515031913377589430000001527950496163383230_);}
	.st16{opacity:9.000000e-02;}
	.st17{fill:#211F1F;}
	.st18{opacity:8.000000e-02;}
	.st19{clip-path:url(#SVGID_00000008119253324190898130000012225907442641960850_);fill:#273868;}
	.st20{clip-path:url(#SVGID_00000008119253324190898130000012225907442641960850_);}
	.st21{fill:#273868;stroke:#5065A5;stroke-width:0.2;stroke-miterlimit:10;}
</style>
<g id="peerania">
	<path id="_x37_b505434-05e4-4733-bd03-7559c80e23bc" class="st0" d="M51.5,65.2c0.3-1,0.5-2,0.6-3c1.3,0.1,2.9-0.5,4.6-0.5
		c0,1,0,2.7-0.1,3.7c-0.9,6.8-10,11-10,11c1.2-1.5,1.9-3.3,2-5.2C49.7,69.2,50.7,67.2,51.5,65.2z"/>
	<path class="st1" d="M94.4,52.5c0,0-2.1,5.1-13.9,7.8c-7,1.6-16.9,1.9-23.8,1.9c-1.5,0-3,0-4.1,0h-0.5c-2.3,0-3.7-0.1-3.7-0.1
		s1.3,5.7-4.3,11.3c-3.1,3.4-7.4,5.3-12,5.3c0,0,3.3-4.6,4.3-7.8c2.5-1.9,7.8-8.7,7.8-8.7s-5.3-0.5-6.8-4.7c-1-2.7-1-7.5-1-7.5
		c-1.9,1.9-3.9,3.6-6.1,5.2c-2.8,1.8-7.6,3.4-7.9,3.5c0.1-0.3,2-5.4,3.5-7.8c1.5-2.4,3.5-5.2,3.5-5.2l-2.6-14.9c0,0,4.8,1,6.9,3.5
		c1.6,1.9,3,3.9,4.3,6.1c0,0-0.4-6.9,3.5-12.5c0.6-0.8,1.2-1.6,2-2.2c0.1-0.1,0.3-0.2,0.4-0.3c0.2-0.1,0.3-0.2,0.5-0.4
		c0.2-0.1,0.5-0.3,0.8-0.4c0.8-0.4,1.6-0.7,2.5-0.9c1.3-0.3,2.6-0.3,3.9-0.1c1.1,0.4,2.2,0.7,3.3,0.9c1.1,0.2,2.6-0.9,1.2-3.6
		c0.6,0.2,1.2,0.4,1.8,0.8l0,0c1.8,1.1,3.2,2.7,3.2,2.7s1.7-0.9-0.2-5.3c4.4,0.4,6.7,7.6,6.7,7.6c0-2.6,0.1-5.3,0.4-7.9
		c2.4,2.2,3.8,5.2,3.9,8.5c0,0,2.2,0,4.2,1.4c0.9,0.6,1.7,1.4,2.3,2.6c0.3,0.6,0.5,1.4,0.6,2.4c0.3,3.7-0.7,9.4-1.3,12.8l0,0
		c-0.3,1.6-0.6,2.6-0.6,2.6l2,1.6l0,0l0,0l3.3-5.5l3.3,4.5l0.1-0.5l0.1-0.3l1.6-6c0,0,2.4,2.2,4.3,4.3c0.1,0.1,0.2,0.2,0.3,0.4l0,0
		C93.2,49.1,94,50.8,94.4,52.5z"/>
	<circle id="_x32_4f5393d-4d01-4e9a-994e-955807d4b8cf" class="st2" cx="58.8" cy="43.8" r="10.3"/>
	<path id="ee505f71-9a0b-4df3-b358-d6d65d15bb5a" class="st3" d="M66.8,43.5c-0.3,2.5-1.7,4.8-3.8,6.2c1.2-1.3,2.1-2.9,2.3-4.7
		c0.5-3.4-1.8-6.6-5.2-7.2l0,0c-0.4,0-0.7-0.1-1.1-0.1c-4.1,0.1-7.5,3.2-8.1,7.2c0,0.3-0.1,0.7-0.1,1l0,0c-0.2-0.9-0.2-1.8-0.1-2.7
		c0.6-4.5,4.5-7.9,9-8c3.9-0.1,7.1,3,7.2,6.8C66.9,42.7,66.9,43.1,66.8,43.5z"/>
	<path id="_x34_e30afb6-9b67-4416-9a10-73eb83fa54dc" class="st4" d="M62.3,35.8c1.8,0.6,3.8,2.4,3,4.1c-0.6,1.2-2.5-0.8-4.3-1.3
		s-4.5-0.5-4-1.8C57.8,34.9,60.5,35.2,62.3,35.8z"/>
	<path id="_x34_067f20d-e99a-4389-8852-6fcb31bee618" class="st5" d="M86.3,50.2c-4.1,0.7-8.3,0.8-12.4,0.2l3-5.1l2.6,4l3-4.6
		l3.3,4.5l1.8-6.8l4.3,4.3C92.4,47.2,92.8,49,86.3,50.2z"/>
</g>
<g>
	<path class="st6" d="M49.4,23c1.8-1.7,3.5-2.9,5.5-2.9c1.2,0,1.7-0.1,3.3,0.9l1.7,1.4"/>
	<g id="hedphones">
		<g>
			<path class="st6" d="M44.1,47.6c-0.6-2.5-0.7-4.6-0.8-8.2c0-0.5,0-1,0.1-1.6c0.6-6.7,3.2-12.4,7.1-15.7"/>
			<path class="st7" d="M48.8,22.2c1.9-1.9,3.8-3.1,6-3.1c1.3,0,1.8-0.1,3.7,1l1.8,1.5"/>
			<path class="st7" d="M43.3,49.7c-0.8-2.7-1-4.9-1.2-8.8c0-0.6,0-1.1,0-1.7c0.3-7.2,2.9-13.4,7-17.3"/>
			<path class="st8" d="M47.3,25"/>
		</g>
		<path class="st9" d="M41.4,40.7h0.9l2.1,0.1c0.2,0,1.2,0.1,1.9,0.9c0.5,0.5,0.7,1.3,0.7,2l-0.2,5.2c-0.1,1.6-1.4,2.8-2.9,2.7
			l-3.1-0.1c-1.5-0.1-2.7-1.4-2.6-3l0.2-5.2C38.6,41.8,39.9,40.6,41.4,40.7z"/>
		<path class="st10" d="M41,40.1h0.9l2.1,0.1c0.2,0,1.2,0.1,1.9,0.9c0.5,0.5,0.7,1.4,0.7,2.1l-0.2,5.4c-0.1,1.7-1.4,2.9-2.9,2.8
			l-3.1-0.1c-1.5-0.1-2.7-1.5-2.6-3.1l0.2-5.4C38.2,41.2,39.5,40,41,40.1z"/>
		<path class="st11" d="M41.3,41.8l2.2,0.1c1.1,0.1,1.9,1,1.9,2.1l-0.2,3.7c-0.1,1.1-1,2-2.1,2l-2.2-0.1c-1.1-0.1-1.9-1-1.9-2.1
			l0.2-3.7C39.3,42.6,40.2,41.7,41.3,41.8z"/>
	</g>
</g>
<g>
	<path class="st12" d="M72,27.6L72,27.6c-8-0.8-14.7-2.4-17.8-4.1c0-0.5-0.1-1-0.1-1.4c0.1-2,1.1-4,2.7-5.8c4.4-4.5,7.5-8,11.9-6.3
		c4.5,1.8,2.5,5.9,3.8,12.2C73,24.4,72.8,26.1,72,27.6z"/>
	<g>
		<g>
			<defs>
				<path id="SVGID_1_" d="M54.1,22.1c0-1.1,0.3-2,0.6-2.7l0-0.1c7.7,3.2,14.8,3.4,17.8,4.1c0,0.5,0.1,1,0.1,1.4
					c0,0.6-0.3,1.4-0.5,2"/>
			</defs>
			<clipPath id="SVGID_00000081616746135122874170000001449610986035769741_">
				<use xlink:href="#SVGID_1_"  style="overflow:visible;"/>
			</clipPath>
			<g style="clip-path:url(#SVGID_00000081616746135122874170000001449610986035769741_);">
				<defs>
					<filter id="Adobe_OpacityMaskFilter" filterUnits="userSpaceOnUse" x="33.7" y="-22" width="55.4" height="66.6">
						<feColorMatrix  type="matrix" values="1 0 0 0 0  0 1 0 0 0  0 0 1 0 0  0 0 0 1 0"/>
					</filter>
				</defs>
				
					<mask maskUnits="userSpaceOnUse" x="33.7" y="-22" width="55.4" height="66.6" id="SVGID_00000133515031913377589430000001527950496163383230_">
					<g class="st14">
						
							<image style="overflow:visible;enable-background:new    ;" width="58" height="69" xlink:href="5123905.jpg"  transform="matrix(1.0165 1.291486e-02 -1.291486e-02 1.0165 32.5455 -24.2315)">
						</image>
					</g>
				</mask>
				<g class="st15">
					<g class="st16">
						<path class="st17" d="M85.2-7.8c-3.1-9.9-14-10.4-23.2-14L47.8-22c-4.4,3.8-7.4,5.2-9.3,10.6C37.1-7.6,37-3.5,38.8,0.2
							c4.4,8.8,12.7,10,21.7,13.5l12.2,0.2c5.2-2.6,8.9-3.4,11.3-8.5C86.1,1.1,86.8-3,85.2-7.8z"/>
						<path class="st17" d="M71.2,2.6c-7.5-0.4-14.4-2.3-20.6-5.4c-0.7-0.4-1-1.2-0.6-1.8C50.6-5.4,51-6.2,51.4-7
							c0.3-0.6,1.1-0.9,1.8-0.6C58.8-4.8,65.1-3.1,72-2.8c0.8,0,1.4,0.6,1.4,1.3c-0.1,0.9-0.2,1.8-0.3,2.7C73,2.1,72.2,2.7,71.2,2.6
							z"/>
						<path class="st17" d="M85,6.4C81.9-3.5,71-4,61.8-7.6L47.6-7.8C43.2-4,40.2-2.6,38.3,2.8c-1.4,3.8-1.5,7.9,0.4,11.7
							c4.4,8.8,12.7,10,21.7,13.5l12.2,0.2c5.2-2.6,8.9-3.4,11.3-8.5C85.9,15.3,86.6,11.2,85,6.4z"/>
						<path class="st17" d="M71.1,16.8c-7.5-0.4-14.4-2.3-20.6-5.4c-0.7-0.4-1-1.2-0.6-1.8c0.5-0.7,0.9-1.5,1.4-2.3
							c0.3-0.6,1.1-0.9,1.8-0.6c5.6,2.8,11.8,4.5,18.7,4.8c0.8,0,1.4,0.6,1.4,1.3c-0.1,0.9-0.2,1.8-0.3,2.7
							C72.8,16.3,72,16.9,71.1,16.8z"/>
					</g>
					<g>
						<g class="st16">
							<path class="st17" d="M85,6.4C81.9-3.5,71-4,61.8-7.6L47.6-7.8C43.2-4,40.2-2.6,38.3,2.8c-1.4,3.8-1.5,7.9,0.4,11.7
								c4.4,8.8,12.7,10,21.7,13.5l12.2,0.2c5.2-2.6,8.9-3.4,11.3-8.5C85.9,15.3,86.6,11.2,85,6.4z"/>
							<path class="st17" d="M71.1,16.8c-7.5-0.4-14.4-2.3-20.6-5.4c-0.7-0.4-1-1.2-0.6-1.8c0.5-0.7,0.9-1.5,1.4-2.3
								c0.3-0.6,1.1-0.9,1.8-0.6c5.6,2.8,11.8,4.5,18.7,4.8c0.8,0,1.4,0.6,1.4,1.3c-0.1,0.9-0.2,1.8-0.3,2.7
								C72.8,16.3,72,16.9,71.1,16.8z"/>
						</g>
						<g>
							<g class="st18">
								<g style="enable-background:new    ;">
									
										<image style="overflow:visible;" width="54" height="40" xlink:href="512390C.png"  transform="matrix(1.0165 1.291486e-02 -1.291486e-02 1.0165 34.2299 3.2407)">
									</image>
								</g>
							</g>
							<g>
								<path class="st12" d="M70.9,31.1c-7.5-0.4-14.4-2.3-20.6-5.4c-0.7-0.4-1-1.2-0.6-1.8c0.5-0.8,0.9-1.6,1.4-2.3
									c0.3-0.6,1.1-0.9,1.8-0.6c5.6,2.8,11.8,4.5,18.7,4.8c0.8,0,1.4,0.6,1.4,1.3c-0.1,0.9-0.2,1.8-0.3,2.7
									C72.6,30.6,71.8,31.2,70.9,31.1z"/>
							</g>
						</g>
					</g>
				</g>
			</g>
		</g>
	</g>
	<g>
		<g>
			<defs>
				<path id="SVGID_00000145025506187900268950000001100108655744622776_" d="M72.5,29.1c-7.1,0.5-13.9-0.7-20.2-3.1
					c-0.7-0.3-1-0.9-0.8-1.5c0.4-0.7,0.8-1.5,1.1-2.2c0.3-0.5,1-0.7,1.6-0.5C60,24,66.2,25,72.7,24.5c0.7-0.1,1.3,0.4,1.3,1
					c0,0.8,0,1.6,0,2.5C74,28.5,73.3,29.1,72.5,29.1z"/>
			</defs>
			<clipPath id="SVGID_00000174562529923747349050000006732699587348143509_">
				<use xlink:href="#SVGID_00000145025506187900268950000001100108655744622776_"  style="overflow:visible;"/>
			</clipPath>
		</g>
		<g>
			<defs>
				<path id="SVGID_00000161619475642348750570000010722585609841298858_" d="M72.5,29.1c-7.1,0.5-13.9-0.7-20.2-3.1
					c-0.7-0.3-1-0.9-0.8-1.5c0.4-0.7,0.8-1.5,1.1-2.2c0.3-0.5,1-0.7,1.6-0.5C60,24,66.2,25,72.7,24.5c0.7-0.1,1.3,0.4,1.3,1
					c0,0.8,0,1.6,0,2.5C74,28.5,73.3,29.1,72.5,29.1z"/>
			</defs>
			<use xlink:href="#SVGID_00000161619475642348750570000010722585609841298858_"  style="overflow:visible;fill:#273868;"/>
			<clipPath id="SVGID_00000036215685466625205210000012065412291009772217_">
				<use xlink:href="#SVGID_00000161619475642348750570000010722585609841298858_"  style="overflow:visible;"/>
			</clipPath>
			<path style="clip-path:url(#SVGID_00000036215685466625205210000012065412291009772217_);fill:#273868;" d="M66.8,21.4
				c0,0.2,0.1,0.3,0.2,0.3"/>
			<g style="clip-path:url(#SVGID_00000036215685466625205210000012065412291009772217_);">
				<path class="st21" d="M71.4,23.3c0.4,2.9,0.8,5.8,1.1,8.7"/>
				<path class="st21" d="M69,23.7c0.1,3.2,0,6.5-0.1,9.7"/>
				<path class="st21" d="M65.5,22.9c-0.4,3.3-0.9,6.6-1.5,9.9"/>
				<path class="st21" d="M61.8,22.2c-0.7,3-1.6,5.9-2.7,8.8"/>
				<path class="st21" d="M58.5,21.1c-1,2.8-2.1,5.6-3.4,8.3"/>
				<path class="st21" d="M56.7,19.9c-1.3,2.6-2.8,5.1-4.4,7.5"/>
			</g>
		</g>
		<g>
			<defs>
				<path id="SVGID_00000121960434254044826020000008508979307850952625_" d="M72.5,29.1c-7.1,0.5-13.9-0.7-20.2-3.1
					c-0.7-0.3-1-0.9-0.8-1.5c0.4-0.7,0.8-1.5,1.1-2.2c0.3-0.5,1-0.7,1.6-0.5C60,24,66.2,25,72.7,24.5c0.7-0.1,1.3,0.4,1.3,1
					c0,0.8,0,1.6,0,2.5C74,28.5,73.3,29.1,72.5,29.1z"/>
			</defs>
			<clipPath id="SVGID_00000168078578317533122710000001882492278702502572_">
				<use xlink:href="#SVGID_00000121960434254044826020000008508979307850952625_"  style="overflow:visible;"/>
			</clipPath>
		</g>
	</g>
</g>
</svg>
