<?xml version="1.0" encoding="utf-8"?>
<!-- Generator: Adobe Illustrator 26.0.1, SVG Export Plug-In . SVG Version: 6.00 Build 0)  -->
<svg version="1.1" id="Слой_1" xmlns="http://www.w3.org/2000/svg" xmlns:xlink="http://www.w3.org/1999/xlink" x="0px" y="0px"
	 viewBox="0 0 792 612" style="enable-background:new 0 0 792 612;" xml:space="preserve">
<style type="text/css">
	.st0{fill:#6F6F6E;}
	.st1{fill:#576FED;}
	.st2{fill:#7699FF;}
	.st3{fill:#1D1D1B;}
	.st4{opacity:0.1;fill:#FFFFFF;enable-background:new    ;}
	.st5{fill:#FFFFFF;}
	.st6{fill:#ED726C;}
	.st7{fill:#F76F60;}
	.st8{fill:#C8D6FF;}
	.st9{fill:none;stroke:#C2C6D8;stroke-width:7;stroke-miterlimit:10;}
	.st10{fill:#5065A5;}
</style>
<ellipse transform="matrix(0.2177 -0.976 0.976 0.2177 245.2133 502.8895)" class="st0" cx="436.3" cy="98.48" rx="7.72" ry="14.61"/>
<g>
	<path id="_x37_b505434-05e4-4733-bd03-7559c80e23bc" class="st1" d="M357.21,411.37c1.75-5.59,3.15-11.18,3.49-17.12
		c7.34,0.35,16.42,0.35,26.21,0.35c0,5.94,0,11.53-0.7,17.47c-4.89,38.09-56.61,61.86-56.61,61.86
		c6.99-8.39,10.83-18.52,11.18-29.36C347.07,433.74,352.67,422.55,357.21,411.37z"/>
	<path id="_x31_a5106a6-deb3-4185-b01c-a80421d90d97" class="st2" d="M246.78,487.56c0,0,18.87-25.86,24.46-44.03
		c14.33-10.83,44.03-48.93,44.03-48.93s-30.05-2.8-38.44-26.56c-5.59-15.03-5.59-42.29-5.59-42.29
		c-10.48,10.83-22.02,20.62-34.25,29.36c-16.08,10.48-44.38,19.57-44.38,19.57s11.18-30.4,19.57-44.03
		c8.39-13.63,19.57-29.36,19.57-29.36l-14.68-83.87c0,0,27.26,5.94,39.14,19.57c9.09,10.83,17.12,22.37,24.46,34.25
		c0,0-2.1-39.14,19.57-70.59c12.58-18.52,34.95-27.96,56.96-24.11c5.94,2.1,12.23,3.84,18.52,4.89c6.29,1.05,14.68-4.89,6.64-20.27
		c14.68,3.84,28.31,19.92,28.31,19.92s9.79-5.24-1.05-29.7c25.16,2.1,38.09,42.98,38.09,42.98c0-15.03,0.7-30.05,2.45-44.73
		c13.63,12.23,21.67,29.7,22.02,47.88c0,0,25.51,0.35,36.69,22.37s-7.34,100.65-7.34,100.65l11.18,9.09l18.52-30.75l18.87,25.51
		l10.13-38.44c0,0,13.63,12.23,24.46,24.46c6.99,8.39,12.23,18.52,14.68,29.36c0,0-11.88,28.66-78.63,44.03
		s-181.72,9.79-181.72,9.79s7.34,32.15-24.46,63.95C297.45,476.37,272.64,487.21,246.78,487.56z"/>
	<circle id="_x32_4f5393d-4d01-4e9a-994e-955807d4b8cf" class="st3" cx="398.45" cy="290.46" r="58.36"/>
	<path id="ee505f71-9a0b-4df3-b358-d6d65d15bb5a" class="st4" d="M443.88,289.06c-1.75,14.33-9.79,26.91-21.32,35.3
		c6.99-7.34,11.53-16.42,12.93-26.56c3.15-19.22-10.13-37.39-29.7-40.54l0,0c-2.1-0.35-4.19-0.35-6.29-0.35
		c-23.06,0.35-42.29,17.82-45.78,40.89c-0.35,2.1-0.35,3.84-0.35,5.94l0,0c-1.05-4.89-1.4-10.13-0.7-15.03
		c3.49-25.51,25.16-44.73,51.02-45.43c21.67-0.35,39.84,16.77,40.54,38.44C444.58,284.17,444.23,286.61,443.88,289.06z"/>
	<path id="_x34_e30afb6-9b67-4416-9a10-73eb83fa54dc" class="st5" d="M418.37,245.38c10.13,3.15,21.67,13.63,16.77,23.06
		c-3.49,6.99-14.33-4.54-24.46-7.34c-10.13-2.8-25.16-2.8-22.37-10.13C392.85,240.48,408.23,242.23,418.37,245.38z"/>
	<path id="_x34_067f20d-e99a-4389-8852-6fcb31bee618" class="st6" d="M553.61,327.4c-23.06,3.84-46.83,4.19-70.24,1.4l17.12-28.66
		l14.68,22.72l16.77-26.21l18.87,25.51l10.13-38.44l24.46,24.46C587.86,310.62,590.3,320.76,553.61,327.4z"/>
</g>
<circle class="st7" cx="454.31" cy="361.06" r="19.15"/>
<path class="st8" d="M508.19,168.44c-7.5,28.73-54.73,40.95-101.34,30.56c-46.6-10.39-73.86-39.37-67.43-68.2
	s49.42-43.77,96.02-33.37S515.64,139.86,508.19,168.44z"/>
<path class="st9" d="M437.26,425.78c6.47,7.36-1.03,14.9-13.38,14.9s-15.9-7.24-15.9-16.06s7.22-27.27,15.9-27.16
	C428.18,397.52,432.33,420.17,437.26,425.78z"/>
<path class="st9" d="M449.66,406.71c7.56,1.18,5.45,9.31-3.16,15.35c-8.61,6.04-14.09,3.5-17.74-1.7s-6.26-19.64-0.17-23.82
	C431.62,394.46,443.91,405.81,449.66,406.71z"/>
<g>
	<path class="st10" d="M516.3,202.9c-35.15,6.32-70.1,4.65-105.19-1.06c-32.38-5.27-59.2-23.07-90.75-29.75
		c9.17-3.83,13.97-6,23.27-13.22c24.69,4.99,47.69,15.5,72.7,20.14c26.65,4.95,52.81,7.78,79.98,7.03
		C505.17,192.13,510.66,194.09,516.3,202.9z"/>
</g>
<path class="st7" d="M322.92,217.8"/>
<path class="st9" d="M340.09,177.8c-6.6,17.08-21.69,49.34-23.89,80c-1.15,15.98-0.2,75.1,44.86,112.14
	c24.06,19.78,52.29,24.84,68.77,26.35"/>
<path class="st10" d="M513.68,205.09c-0.58-0.18-3.97-1.42-5.25-0.65c-1.07,0.64,0.79,2.01-0.88,4.25
	c-1.11,1.49-6.72-4.07-7.09-1.95c-0.31,1.79,1.98,3.99-0.25,4.93c-2.28,0.96-3.28-2.42-7.02-2.63c-3.33-0.19-0.95,4.31-4.45,6.55
	c-3.45,2.2-4.23,0.6-7.56-1.91c-3.76-2.82-4.57-2.87-8.77-2.25c-3.09,0.46-8.38,9.46-15.2,4.35c-5.51-4.13-7.82-5.43-9.94-5.45
	c-3.31-0.02-1.57-0.29-10.98,3.59c-6.48,2.68-9.2-4.74-13.38-6.48c-3.98-1.65-9.65,4.71-11.95,1.98c-6.75-8.02-8.31-1-12.52-2.56
	c-3.66-1.35-1.86-4.36-5.05-5.44c-3.37-1.14-5.73,3.07-9.04,1.95c-3.32-1.12-2.4-5.87-6.02-7.62c-3.65-1.76-6.2,2.27-10.29,0.89
	c-4.97-1.69-4.28-8.72-9.21-10.11c-3.35-0.93-4.79,2.01-8.16,0.89c-4.19-1.4-3.78-6.57-7.44-7.44c-3.79-0.92-6.87,3.98-9.22,2.65
	c-2.16-1.21,0.56-4.53-1.48-5.45c-2.18-1-5.46,1.59-8.27,1.2c-1.05-0.14,0.81-3.07,0.69-4.37c-2.64,0-4.53,0.75-6.14,0.25
	c-1.06-0.33,0.1-1.49,1.58-2.17l7.36,1.63l188.46,29.08C518.46,205.95,514.26,205.27,513.68,205.09z"/>
</svg>
