<svg xmlns="http://www.w3.org/2000/svg" xml:space="preserve" id="Слой_1" x="0" y="0"
	style="enable-background:new 0 0 692 512" version="1.1" viewBox="0 0  652 472">
	<style>
		.st7 {
			fill: #f76f60
		}

		.st9 {
			fill: none;
			stroke: #c2c6d8;
			stroke-width: 7;
			stroke-miterlimit: 10
		}

		.st10 {
			fill: #5065a5
		}
	</style>
	<ellipse cx="436.3" cy="98.48" rx="7.72" ry="14.61" style="fill:#6f6f6e"
		transform="translate(-72 -80) rotate(-77.426 436.318 98.482)"/>
	<path id="_x37_b505434-05e4-4733-bd03-7559c80e23bc"
		d="M357.21 411.37c1.75-5.59 3.15-11.18 3.49-17.12 7.34.35 16.42.35 26.21.35 0 5.94 0 11.53-.7 17.47-4.89 38.09-56.61 61.86-56.61 61.86 6.99-8.39 10.83-18.52 11.18-29.36 6.29-10.83 11.89-22.02 16.43-33.2z"
		style="fill:#576fed" transform="translate(-72 -80)"/>
	<path id="_x31_a5106a6-deb3-4185-b01c-a80421d90d97"
		d="M246.78 487.56s18.87-25.86 24.46-44.03c14.33-10.83 44.03-48.93 44.03-48.93s-30.05-2.8-38.44-26.56c-5.59-15.03-5.59-42.29-5.59-42.29-10.48 10.83-22.02 20.62-34.25 29.36-16.08 10.48-44.38 19.57-44.38 19.57s11.18-30.4 19.57-44.03c8.39-13.63 19.57-29.36 19.57-29.36l-14.68-83.87s27.26 5.94 39.14 19.57c9.09 10.83 17.12 22.37 24.46 34.25 0 0-2.1-39.14 19.57-70.59 12.58-18.52 34.95-27.96 56.96-24.11 5.94 2.1 12.23 3.84 18.52 4.89 6.29 1.05 14.68-4.89 6.64-20.27 14.68 3.84 28.31 19.92 28.31 19.92s9.79-5.24-1.05-29.7c25.16 2.1 38.09 42.98 38.09 42.98 0-15.03.7-30.05 2.45-44.73 13.63 12.23 21.67 29.7 22.02 47.88 0 0 25.51.35 36.69 22.37s-7.34 100.65-7.34 100.65l11.18 9.09 18.52-30.75 18.87 25.51 10.13-38.44s13.63 12.23 24.46 24.46c6.99 8.39 12.23 18.52 14.68 29.36 0 0-11.88 28.66-78.63 44.03s-181.72 9.79-181.72 9.79 7.34 32.15-24.46 63.95c-17.11 18.84-41.92 29.68-67.78 30.03z"
		style="fill:#7699ff" transform="translate(-72 -80)"/>
	<circle id="_x32_4f5393d-4d01-4e9a-994e-955807d4b8cf" cx="398.45" cy="290.46" r="58.36" style="fill:#1d1d1b" transform="translate(-72 -80)"/>
	<path id="ee505f71-9a0b-4df3-b358-d6d65d15bb5a"
		d="M443.88 289.06c-1.75 14.33-9.79 26.91-21.32 35.3 6.99-7.34 11.53-16.42 12.93-26.56 3.15-19.22-10.13-37.39-29.7-40.54-2.1-.35-4.19-.35-6.29-.35-23.06.35-42.29 17.82-45.78 40.89-.35 2.1-.35 3.84-.35 5.94-1.05-4.89-1.4-10.13-.7-15.03 3.49-25.51 25.16-44.73 51.02-45.43 21.67-.35 39.84 16.77 40.54 38.44.35 2.45 0 4.89-.35 7.34z"
		style="opacity:.1;fill:#fff;enable-background:new" transform="translate(-72 -80)"/>
	<path id="_x34_e30afb6-9b67-4416-9a10-73eb83fa54dc"
		d="M418.37 245.38c10.13 3.15 21.67 13.63 16.77 23.06-3.49 6.99-14.33-4.54-24.46-7.34s-25.16-2.8-22.37-10.13c4.54-10.49 19.92-8.74 30.06-5.59z"
		style="fill:#fff" transform="translate(-72 -80)"/>
	<path id="_x34_067f20d-e99a-4389-8852-6fcb31bee618"
		d="M553.61 327.4c-23.06 3.84-46.83 4.19-70.24 1.4l17.12-28.66 14.68 22.72 16.77-26.21 18.87 25.51 10.13-38.44 24.46 24.46c2.46 2.44 4.9 12.58-31.79 19.22z"
		style="fill:#ed726c" transform="translate(-72 -80)"/>
	<circle cx="454.31" cy="361.06" r="19.15" class="st7" transform="translate(-72 -80)"/>
	<path
		d="M508.19 168.44c-7.5 28.73-54.73 40.95-101.34 30.56-46.6-10.39-73.86-39.37-67.43-68.2s49.42-43.77 96.02-33.37 80.2 42.43 72.75 71.01z"
		style="fill:#c8d6ff" transform="translate(-72 -80)"/>
	<path
		d="M437.26 425.78c6.47 7.36-1.03 14.9-13.38 14.9s-15.9-7.24-15.9-16.06 7.22-27.27 15.9-27.16c4.3.06 8.45 22.71 13.38 28.32z"
		class="st9" transform="translate(-72 -80)"/>
	<path
		d="M449.66 406.71c7.56 1.18 5.45 9.31-3.16 15.35-8.61 6.04-14.09 3.5-17.74-1.7s-6.26-19.64-.17-23.82c3.03-2.08 15.32 9.27 21.07 10.17z"
		class="st9" transform="translate(-72 -80)"/>
	<g>
		<path
			d="M516.3 202.9c-35.15 6.32-70.1 4.65-105.19-1.06-32.38-5.27-59.2-23.07-90.75-29.75 9.17-3.83 13.97-6 23.27-13.22 24.69 4.99 47.69 15.5 72.7 20.14 26.65 4.95 52.81 7.78 79.98 7.03 8.86 6.09 14.35 8.05 19.99 16.86z"
			class="st10" transform="translate(-72 -80)"/>
	</g>
	<path
		d="M340.09 177.8c-6.6 17.08-21.69 49.34-23.89 80-1.15 15.98-.2 75.1 44.86 112.14 24.06 19.78 52.29 24.84 68.77 26.35"
		class="st9" transform="translate(-72 -80)"/>
	<path
		d="M513.68 205.09c-.58-.18-3.97-1.42-5.25-.65-1.07.64.79 2.01-.88 4.25-1.11 1.49-6.72-4.07-7.09-1.95-.31 1.79 1.98 3.99-.25 4.93-2.28.96-3.28-2.42-7.02-2.63-3.33-.19-.95 4.31-4.45 6.55-3.45 2.2-4.23.6-7.56-1.91-3.76-2.82-4.57-2.87-8.77-2.25-3.09.46-8.38 9.46-15.2 4.35-5.51-4.13-7.82-5.43-9.94-5.45-3.31-.02-1.57-.29-10.98 3.59-6.48 2.68-9.2-4.74-13.38-6.48-3.98-1.65-9.65 4.71-11.95 1.98-6.75-8.02-8.31-1-12.52-2.56-3.66-1.35-1.86-4.36-5.05-5.44-3.37-1.14-5.73 3.07-9.04 1.95-3.32-1.12-2.4-5.87-6.02-7.62-3.65-1.76-6.2 2.27-10.29.89-4.97-1.69-4.28-8.72-9.21-10.11-3.35-.93-4.79 2.01-8.16.89-4.19-1.4-3.78-6.57-7.44-7.44-3.79-.92-6.87 3.98-9.22 2.65-2.16-1.21.56-4.53-1.48-5.45-2.18-1-5.46 1.59-8.27 1.2-1.05-.14.81-3.07.69-4.37-2.64 0-4.53.75-6.14.25-1.06-.33.1-1.49 1.58-2.17l7.36 1.63 188.46 29.08c2.25 3.15-1.95 2.47-2.53 2.29z"
		class="st10" transform="translate(-72 -80)"/>
</svg>