<svg xmlns="http://www.w3.org/2000/svg" xmlns:xlink="http://www.w3.org/1999/xlink" xml:space="preserve" id="Слой_1"
  x="0" y="0" style="enable-background:new 0 0 116.4 96.7" version="1.1" viewBox="0 0 116.4 96.7">
  <defs>
    <path id="reuse-0"
      d="M80.6 42.3c-.7.2-1.3.3-2 .2v1.1c-.5 0-1.1-.1-1.6-.2v1.5c-.9-.1-1.9.2-2.5.9-.1.1-.1.2-.2.3-.8-.5-1.9-.6-3 .1 0-.5.1-1.1.2-1.6.2-1.1 1-2 1.7-2 1.6-.1 3-.6 4.2-1.1.5-.2 1.4-.2 1.9.1.1.1.2.1.3.1.1 0 .1.1.2.1.2.2.5.3.8.5z"
      class="st31" />
  </defs>
  <style>
    .st0 {
      fill: none;
      stroke: #c2c6d8;
      stroke-width: .75;
      stroke-miterlimit: 10
    }

    .st7 {
      display: none
    }

    .st8 {
      display: inline
    }

    .st31 {
      fill: #5065a5
    }

    .st38,
    .st46 {
      stroke-width: .25;
      stroke-miterlimit: 10
    }

    .st38 {
      display: inline;
      fill: none;
      stroke: #b4bdd8
    }

    .st46 {
      fill: #561cff;
      stroke: #5065a5
    }
  </style>
  <g id="_x32__GLASSES">
    <path
      d="M33.7 35.7c.3-.5.7-1.1 1.3-1.6 1-.9 2.3-1.4 3.6-1.4h.4c2.7.1 5.3.1 8 .2h.1M69.9 47.6c-6.4 0-11.7-5.2-11.7-11.7v-7.1h23.4V36c0 6.4-5.3 11.6-11.7 11.6z"
      class="st0" />
  </g>
  <path id="_x37_b505434-05e4-4733-bd03-7559c80e23bc"
    d="M51.5 65.2c.3-1 .5-2.9.6-3.9 1.3.1 3 .5 4.7.5 0 1-.1 2.6-.2 3.6-.9 6.7-10 11-10 11 1.2-1.5 1.9-3.3 2-5.2 1.1-2 2.1-4 2.9-6z"
    style="fill:#576fed" />
  <path id="_x31_a5106a6-deb3-4185-b01c-a80421d90d97"
    d="M31.9 78.7s3.3-4.6 4.3-7.8c2.5-1.9 7.8-8.7 7.8-8.7s-5.3-.5-6.8-4.7c-1-2.7-1-7.5-1-7.5-1.9 1.9-3.9 3.6-6.1 5.2-2.8 1.9-7.9 3.5-7.9 3.5s2-5.4 3.5-7.8c1.5-2.4 3.5-5.2 3.5-5.2l-2.6-14.9s4.8 1.1 6.9 3.5c1.6 1.9 3 3.9 4.3 6.1 0 0-.4-6.9 3.5-12.5 2.2-3.3 6.2-5 10.1-4.3 1.1.4 2.2.7 3.3.9 1.1.2 2.6-.9 1.2-3.6 2.6.7 5 3.5 5 3.5s1.7-.9-.2-5.3c4.5.4 6.7 7.6 6.7 7.6 0-2.6.1-5.3.4-7.9 2.4 2.2 3.8 5.2 3.9 8.5 0 0 4.5.1 6.5 4s-1.3 17.8-1.3 17.8l2 1.6 3.3-5.4 3.3 4.5 1.8-6.8s2.4 2.2 4.3 4.3c1.3 1.5 2.1 3.3 2.6 5.2 0 0-2.1 5.1-13.9 7.8-11.7 2.7-32 1.7-32 1.7s1.3 5.7-4.3 11.3c-3.1 3.5-7.5 5.4-12.1 5.4z"
    style="fill:#7699ff" />
  <circle id="_x32_4f5393d-4d01-4e9a-994e-955807d4b8cf" cx="58.8" cy="43.8" r="10.3" style="fill:#1d1d1b" />
  <path id="ee505f71-9a0b-4df3-b358-d6d65d15bb5a"
    d="M66.9 43.5c-.3 2.5-1.7 4.8-3.8 6.3 1.3-1.3 2.1-2.9 2.3-4.7.5-3.4-1.8-6.6-5.2-7.2-.4-.1-.7-.1-1.1-.1-4.1.1-7.5 3.2-8.1 7.2-.1.3-.1.7-.1 1.1-.2-.9-.2-1.8-.1-2.7.6-4.5 4.5-7.9 9-8 3.9-.1 7.1 3 7.2 6.8-.1.5-.1.9-.1 1.3z"
    style="opacity:.1;fill:#fff;enable-background:new" />
  <path id="_x34_e30afb6-9b67-4416-9a10-73eb83fa54dc"
    d="M62.3 35.8c1.8.6 3.8 2.4 3 4.1-.6 1.2-2.5-.8-4.3-1.3s-4.5-.5-4-1.8c.8-1.9 3.5-1.6 5.3-1z" style="fill:#fff" />
  <path id="_x34_067f20d-e99a-4389-8852-6fcb31bee618"
    d="M85.9 50.1c-4.1.7-8.3.8-12.4.2l3-5.1 2.6 4 3-4.6 3.3 4.5 1.8-6.8 4.3 4.3c.5.6.9 2.3-5.6 3.5z"
    style="fill:#f76f60" />
  <path d="m80.4 63.2.7.1" style="fill:none" />
  <path d="M92.8 27.2s0 .1 0 0h.2c0-.2-.1-.1-.2 0z" style="fill:#c2c6d8" />
  <g>
    <use xlink:href="#reuse-0" class="st31" />
    <use xlink:href="#reuse-0" class="st31" />
  </g>
  <g id="_x31__GLASSES">
    <path
      d="M58.8 55.5c-6.4 0-11.7-5.2-11.7-11.7V32.7h23.4v11.1c0 6.4-5.3 11.7-11.7 11.7zM70.5 32.7l11.1-3.8M47 32.7c-2.6 0-5.1-.1-7.7-.1-.6 0-1.1.1-1.7.2"
      class="st0" />
  </g>
  <g>
    <path d="M70.1 63.6c.4-.9.3-2-.4-2.7-.7-.7-1.9-.8-2.8-.1-.9.6-1.1 1.8-.5 2.8"
      style="fill:none;stroke:#273868;stroke-miterlimit:10" />
    <path
      d="M61.9 73.3h12.7c.8 0 1.5-.7 1.5-1.5v-7.5c0-.8-.7-1.5-1.5-1.5H61.9c-.8 0-1.5.7-1.5 1.5v7.5c0 .8.7 1.5 1.5 1.5z"
      style="fill:#273868" />
    <path d="M62.2 65h12.1M62.2 71.3h12.1" class="st46" />
  </g>
</svg>