<?xml version="1.0" encoding="utf-8"?>
<!-- Generator: Adobe Illustrator 26.0.1, SVG Export Plug-In . SVG Version: 6.00 Build 0)  -->
<svg version="1.1" id="Слой_1" xmlns="http://www.w3.org/2000/svg" xmlns:xlink="http://www.w3.org/1999/xlink" x="0px" y="0px"
	 viewBox="0 0 116.4 96.7" style="enable-background:new 0 0 116.4 96.7;" xml:space="preserve">
<style type="text/css">
	.st0{fill:none;stroke:#C2C6D8;stroke-width:0.75;stroke-miterlimit:10;}
	.st1{fill:#576FED;}
	.st2{fill:#7699FF;}
	.st3{fill:#1D1D1B;}
	.st4{opacity:0.1;fill:#FFFFFF;enable-background:new    ;}
	.st5{fill:#FFFFFF;}
	.st6{fill:#F76F60;}
	.st7{display:none;}
	.st8{display:inline;}
	.st9{clip-path:url(#SVGID_00000043450178317011293200000014589213007506149305_);}
	.st10{clip-path:url(#SVGID_00000055698368945723701390000001197206926386990467_);}
	.st11{clip-path:url(#SVGID_00000003801019390135600030000014410117377624159137_);}
	.st12{clip-path:url(#SVGID_00000040536771596993681300000008648516101360964783_);}
	.st13{clip-path:url(#SVGID_00000129170500441866222280000001343427817390571163_);}
	.st14{clip-path:url(#SVGID_00000028290450730385237360000013266293249788797629_);}
	.st15{clip-path:url(#SVGID_00000070826621894703377630000015731488774718670256_);}
	
		.st16{clip-path:url(#SVGID_00000021111952064211817590000012937434742572243855_);fill:none;stroke:#C2C6D8;stroke-width:0.1059;stroke-miterlimit:10;}
	.st17{clip-path:url(#SVGID_00000021111952064211817590000012937434742572243855_);fill:#576FED;}
	.st18{clip-path:url(#SVGID_00000021111952064211817590000012937434742572243855_);fill:#7699FF;}
	.st19{clip-path:url(#SVGID_00000021111952064211817590000012937434742572243855_);fill:#1D1D1B;}
	.st20{opacity:0.1;clip-path:url(#SVGID_00000021111952064211817590000012937434742572243855_);enable-background:new    ;}
	.st21{clip-path:url(#SVGID_00000025434960484626502030000013784438834796256418_);fill:#FFFFFF;}
	.st22{clip-path:url(#SVGID_00000021111952064211817590000012937434742572243855_);fill:#FFFFFF;}
	.st23{clip-path:url(#SVGID_00000021111952064211817590000012937434742572243855_);fill:#F76F60;}
	.st24{clip-path:url(#SVGID_00000021111952064211817590000012937434742572243855_);fill:#C2C6D8;}
	.st25{clip-path:url(#SVGID_00000021111952064211817590000012937434742572243855_);fill:#5065A5;}
	
		.st26{clip-path:url(#SVGID_00000021111952064211817590000012937434742572243855_);fill:none;stroke:#B4BDD8;stroke-width:0.1412;stroke-miterlimit:10;}
	.st27{clip-path:url(#SVGID_00000021111952064211817590000012937434742572243855_);fill:#B4BDD8;}
	
		.st28{clip-path:url(#SVGID_00000021111952064211817590000012937434742572243855_);fill:none;stroke:#C8D6FF;stroke-width:0.1412;stroke-miterlimit:10;}
	.st29{clip-path:url(#SVGID_00000021111952064211817590000012937434742572243855_);fill:#C8D6FF;}
	
		.st30{clip-path:url(#SVGID_00000021111952064211817590000012937434742572243855_);fill:none;stroke:#B4BDD8;stroke-width:3.530984e-02;stroke-miterlimit:10;}
	.st31{fill:#5065A5;}
	.st32{fill:none;}
	.st33{fill:#C2C6D8;}
	.st34{display:inline;fill:none;stroke:#B4BDD8;stroke-miterlimit:10;}
	.st35{display:inline;fill:#B4BDD8;}
	.st36{display:inline;fill:none;stroke:#C8D6FF;stroke-miterlimit:10;}
	.st37{display:inline;fill:#C8D6FF;}
	.st38{display:inline;fill:none;stroke:#B4BDD8;stroke-width:0.25;stroke-miterlimit:10;}
	.st39{clip-path:url(#SVGID_00000057829058464482089520000009629497605978187710_);}
	.st40{clip-path:url(#SVGID_00000165950925519962731630000000591681482629709233_);fill:#B4BDD8;}
	
		.st41{clip-path:url(#SVGID_00000165950925519962731630000000591681482629709233_);fill:none;stroke:#B4BDD8;stroke-width:0.4083;stroke-miterlimit:10;}
	.st42{display:none;fill:none;stroke:#273854;stroke-miterlimit:10;}
	.st43{display:none;fill:#273868;}
	.st44{fill:none;stroke:#273868;stroke-miterlimit:10;}
	.st45{fill:#273868;}
	.st46{fill:#561CFF;stroke:#5065A5;stroke-width:0.25;stroke-miterlimit:10;}
</style>
<g id="_x32__GLASSES">
	<path class="st0" d="M33.7,35.7c0.3-0.5,0.7-1.1,1.3-1.6l0,0c1-0.9,2.3-1.4,3.6-1.4c0.1,0,0.3,0,0.4,0c2.7,0.1,5.3,0.1,8,0.2h0.1"
		/>
	<path class="st0" d="M69.9,47.6L69.9,47.6c-6.4,0-11.7-5.2-11.7-11.7v-7.1h23.4V36C81.6,42.4,76.3,47.6,69.9,47.6z"/>
</g>
<g>
	<path id="_x37_b505434-05e4-4733-bd03-7559c80e23bc" class="st1" d="M51.5,65.2c0.3-1,0.5-2.9,0.6-3.9c1.3,0.1,3,0.5,4.7,0.5
		c0,1-0.1,2.6-0.2,3.6c-0.9,6.7-10,11-10,11c1.2-1.5,1.9-3.3,2-5.2C49.7,69.2,50.7,67.2,51.5,65.2z"/>
	<path id="_x31_a5106a6-deb3-4185-b01c-a80421d90d97" class="st2" d="M31.9,78.7c0,0,3.3-4.6,4.3-7.8c2.5-1.9,7.8-8.7,7.8-8.7
		s-5.3-0.5-6.8-4.7c-1-2.7-1-7.5-1-7.5c-1.9,1.9-3.9,3.6-6.1,5.2c-2.8,1.9-7.9,3.5-7.9,3.5s2-5.4,3.5-7.8c1.5-2.4,3.5-5.2,3.5-5.2
		l-2.6-14.9c0,0,4.8,1.1,6.9,3.5c1.6,1.9,3,3.9,4.3,6.1c0,0-0.4-6.9,3.5-12.5c2.2-3.3,6.2-5,10.1-4.3c1.1,0.4,2.2,0.7,3.3,0.9
		c1.1,0.2,2.6-0.9,1.2-3.6c2.6,0.7,5,3.5,5,3.5s1.7-0.9-0.2-5.3c4.5,0.4,6.7,7.6,6.7,7.6c0-2.6,0.1-5.3,0.4-7.9
		c2.4,2.2,3.8,5.2,3.9,8.5c0,0,4.5,0.1,6.5,4s-1.3,17.8-1.3,17.8l2,1.6l3.3-5.4l3.3,4.5l1.8-6.8c0,0,2.4,2.2,4.3,4.3
		c1.3,1.5,2.1,3.3,2.6,5.2c0,0-2.1,5.1-13.9,7.8c-11.7,2.7-32,1.7-32,1.7s1.3,5.7-4.3,11.3C40.9,76.8,36.5,78.7,31.9,78.7z"/>
	<circle id="_x32_4f5393d-4d01-4e9a-994e-955807d4b8cf" class="st3" cx="58.8" cy="43.8" r="10.3"/>
	<path id="ee505f71-9a0b-4df3-b358-d6d65d15bb5a" class="st4" d="M66.9,43.5c-0.3,2.5-1.7,4.8-3.8,6.3c1.3-1.3,2.1-2.9,2.3-4.7
		c0.5-3.4-1.8-6.6-5.2-7.2l0,0c-0.4-0.1-0.7-0.1-1.1-0.1C55,37.9,51.6,41,51,45c-0.1,0.3-0.1,0.7-0.1,1.1l0,0
		c-0.2-0.9-0.2-1.8-0.1-2.7c0.6-4.5,4.5-7.9,9-8c3.9-0.1,7.1,3,7.2,6.8C66.9,42.7,66.9,43.1,66.9,43.5z"/>
	<path id="_x34_e30afb6-9b67-4416-9a10-73eb83fa54dc" class="st5" d="M62.3,35.8c1.8,0.6,3.8,2.4,3,4.1c-0.6,1.2-2.5-0.8-4.3-1.3
		s-4.5-0.5-4-1.8C57.8,34.9,60.5,35.2,62.3,35.8z"/>
	<path id="_x34_067f20d-e99a-4389-8852-6fcb31bee618" class="st6" d="M85.9,50.1c-4.1,0.7-8.3,0.8-12.4,0.2l3-5.1l2.6,4l3-4.6
		l3.3,4.5l1.8-6.8l4.3,4.3C92,47.2,92.4,48.9,85.9,50.1z"/>
</g>
<g id="Иллюстрация_4_00000173852097829523454810000016023020254935152822_" class="st7">
	<g class="st8">
		<g>
			<defs>
				<rect id="SVGID_1_" x="80.1" y="69.7" width="15.5" height="15.6"/>
			</defs>
			<clipPath id="SVGID_00000024689831411089531830000008751047176597490331_">
				<use xlink:href="#SVGID_1_"  style="overflow:visible;"/>
			</clipPath>
			<g style="clip-path:url(#SVGID_00000024689831411089531830000008751047176597490331_);">
				<g>
					<defs>
						<rect id="SVGID_00000070809571163925248170000014943070306611799712_" x="80.1" y="69.7" width="15.5" height="15.6"/>
					</defs>
					<clipPath id="SVGID_00000002373700825750624440000015560986494815728279_">
						<use xlink:href="#SVGID_00000070809571163925248170000014943070306611799712_"  style="overflow:visible;"/>
					</clipPath>
					<g style="clip-path:url(#SVGID_00000002373700825750624440000015560986494815728279_);">
						<g>
							<defs>
								<rect id="SVGID_00000056411942451854766290000006331979567531364758_" x="80.1" y="69.7" width="15.5" height="15.6"/>
							</defs>
							<clipPath id="SVGID_00000084532341399465968920000011107736014525961383_">
								<use xlink:href="#SVGID_00000056411942451854766290000006331979567531364758_"  style="overflow:visible;"/>
							</clipPath>
							<g style="clip-path:url(#SVGID_00000084532341399465968920000011107736014525961383_);">
								
									<image style="overflow:visible;" width="119" height="105" xlink:href="973BA65.png"  transform="matrix(0.1426 0 0 0.1346 79.3478 70.3855)">
								</image>
							</g>
						</g>
					</g>
				</g>
			</g>
		</g>
	</g>
</g>
<g id="Иллюстрация_5_00000143600945575807056730000011350717958155927704_" class="st7">
	<g class="st8">
		<g>
			<defs>
				<rect id="SVGID_00000152250049826097478810000006386835397986594741_" x="58.4" y="75.8" width="15.1" height="15.1"/>
			</defs>
			<clipPath id="SVGID_00000137115404728988863350000009727461049388350126_">
				<use xlink:href="#SVGID_00000152250049826097478810000006386835397986594741_"  style="overflow:visible;"/>
			</clipPath>
			<g style="clip-path:url(#SVGID_00000137115404728988863350000009727461049388350126_);">
				<g>
					<defs>
						<rect id="SVGID_00000127727737417407958050000008162071019461457570_" x="58.4" y="75.8" width="15.1" height="15.1"/>
					</defs>
					<clipPath id="SVGID_00000164472603360345573970000015347338048206160828_">
						<use xlink:href="#SVGID_00000127727737417407958050000008162071019461457570_"  style="overflow:visible;"/>
					</clipPath>
					
						<g transform="matrix(1 0 0 1 3.814697e-06 0)" style="clip-path:url(#SVGID_00000164472603360345573970000015347338048206160828_);">
						<g>
							<g>
								<defs>
									<rect id="SVGID_00000089540836023519741360000008587480379562486913_" x="57.7" y="76.5" width="16.4" height="13.7"/>
								</defs>
								<clipPath id="SVGID_00000151518199910379722020000004634921980123312542_">
									<use xlink:href="#SVGID_00000089540836023519741360000008587480379562486913_"  style="overflow:visible;"/>
								</clipPath>
								<g style="clip-path:url(#SVGID_00000151518199910379722020000004634921980123312542_);">
									<defs>
										<rect id="SVGID_00000090268240013463929400000007982584684244516010_" x="57.7" y="76.5" width="16.4" height="13.7"/>
									</defs>
									<clipPath id="SVGID_00000039821041678854534270000007269113404070838912_">
										<use xlink:href="#SVGID_00000090268240013463929400000007982584684244516010_"  style="overflow:visible;"/>
									</clipPath>
									<g style="clip-path:url(#SVGID_00000039821041678854534270000007269113404070838912_);">
										<defs>
											<rect id="SVGID_00000107575409086821476810000016804410591219990696_" x="57.7" y="76.5" width="16.4" height="13.7"/>
										</defs>
										<clipPath id="SVGID_00000170987164524940214220000015810611491485793449_">
											<use xlink:href="#SVGID_00000107575409086821476810000016804410591219990696_"  style="overflow:visible;"/>
										</clipPath>
										
											<path style="clip-path:url(#SVGID_00000170987164524940214220000015810611491485793449_);fill:none;stroke:#C2C6D8;stroke-width:0.1059;stroke-miterlimit:10;" d="
											M62.5,81.5c0-0.1,0.1-0.2,0.2-0.2c0.1-0.1,0.3-0.2,0.5-0.2h0.1c0.4,0,0.7,0,1.1,0h0"/>
										
											<path style="clip-path:url(#SVGID_00000170987164524940214220000015810611491485793449_);fill:none;stroke:#C2C6D8;stroke-width:0.1059;stroke-miterlimit:10;" d="
											M67.6,83.2L67.6,83.2c-0.9,0-1.7-0.7-1.7-1.7v-1h3.3v1C69.2,82.5,68.5,83.2,67.6,83.2z"/>
										<path style="clip-path:url(#SVGID_00000170987164524940214220000015810611491485793449_);fill:#576FED;" d="M65,85.7
											c0-0.1,0.1-0.4,0.1-0.6c0.2,0,0.4,0.1,0.7,0.1c0,0.1,0,0.4,0,0.5c-0.1,0.9-1.4,1.6-1.4,1.6c0.2-0.2,0.3-0.5,0.3-0.7
											C64.7,86.3,64.9,86,65,85.7"/>
										<path style="clip-path:url(#SVGID_00000170987164524940214220000015810611491485793449_);fill:#7699FF;" d="M62.2,87.6
											c0,0,0.5-0.6,0.6-1.1c0.4-0.3,1.1-1.2,1.1-1.2s-0.7-0.1-1-0.7c-0.1-0.4-0.1-1.1-0.1-1.1c-0.3,0.3-0.6,0.5-0.9,0.7
											c-0.4,0.3-1.1,0.5-1.1,0.5s0.3-0.8,0.5-1.1c0.2-0.3,0.5-0.7,0.5-0.7l-0.4-2.1c0,0,0.7,0.2,1,0.5c0.2,0.3,0.4,0.6,0.6,0.9
											c0,0-0.1-1,0.5-1.8c0.3-0.5,0.9-0.7,1.4-0.6c0.2,0.1,0.3,0.1,0.5,0.1c0.2,0,0.4-0.1,0.2-0.5c0.4,0.1,0.7,0.5,0.7,0.5
											s0.2-0.1,0-0.7c0.6,0.1,0.9,1.1,0.9,1.1c0-0.4,0-0.7,0.1-1.1c0.3,0.3,0.5,0.7,0.6,1.2c0,0,0.6,0,0.9,0.6
											c0.3,0.6-0.2,2.5-0.2,2.5l0.3,0.2l0.5-0.8l0.5,0.6l0.3-1c0,0,0.3,0.3,0.6,0.6c0.2,0.2,0.3,0.5,0.4,0.7c0,0-0.3,0.7-2,1.1
											c-1.7,0.4-4.5,0.2-4.5,0.2s0.2,0.8-0.6,1.6C63.5,87.4,62.9,87.6,62.2,87.6"/>
										<path style="clip-path:url(#SVGID_00000170987164524940214220000015810611491485793449_);fill:#1D1D1B;" d="M66,81.2
											c0.8,0,1.5,0.7,1.5,1.5s-0.7,1.5-1.5,1.5c-0.8,0-1.5-0.7-1.5-1.5S65.2,81.2,66,81.2"/>
										
											<g style="opacity:0.1;clip-path:url(#SVGID_00000170987164524940214220000015810611491485793449_);enable-background:new    ;">
											<g>
												<defs>
													<rect id="SVGID_00000047747269523791001260000016619206791859058110_" x="64.9" y="81.5" width="2.3" height="2"/>
												</defs>
												<clipPath id="SVGID_00000051366694299438687510000018423771846167047328_">
													<use xlink:href="#SVGID_00000047747269523791001260000016619206791859058110_"  style="overflow:visible;"/>
												</clipPath>
												<path style="clip-path:url(#SVGID_00000051366694299438687510000018423771846167047328_);fill:#FFFFFF;" d="M67.2,82.6
													c0,0.4-0.2,0.7-0.5,0.9c0.2-0.2,0.3-0.4,0.3-0.7c0.1-0.5-0.3-0.9-0.7-1c-0.1,0-0.1,0-0.2,0c-0.6,0-1.1,0.5-1.1,1
													c0,0,0,0.1,0,0.2c0-0.1,0-0.3,0-0.4c0.1-0.6,0.6-1.1,1.3-1.1c0.6,0,1,0.4,1,1C67.2,82.5,67.2,82.6,67.2,82.6"/>
											</g>
										</g>
										<path style="clip-path:url(#SVGID_00000170987164524940214220000015810611491485793449_);fill:#FFFFFF;" d="M66.5,81.6
											c0.3,0.1,0.5,0.3,0.4,0.6c-0.1,0.2-0.4-0.1-0.6-0.2c-0.3-0.1-0.6-0.1-0.6-0.3C65.9,81.4,66.3,81.5,66.5,81.6"/>
										<path style="clip-path:url(#SVGID_00000170987164524940214220000015810611491485793449_);fill:#F76F60;" d="M69.8,83.6
											c-0.6,0.1-1.2,0.1-1.8,0l0.4-0.7l0.4,0.6l0.4-0.6l0.5,0.6l0.3-1l0.6,0.6C70.7,83.2,70.8,83.4,69.8,83.6"/>
										<path style="clip-path:url(#SVGID_00000170987164524940214220000015810611491485793449_);fill:#C2C6D8;" d="M70.8,80.3
											C70.8,80.3,70.8,80.4,70.8,80.3L70.8,80.3C70.8,80.3,70.8,80.3,70.8,80.3"/>
										<path style="clip-path:url(#SVGID_00000170987164524940214220000015810611491485793449_);fill:#5065A5;" d="M69.1,82.5
											c-0.1,0-0.2,0-0.3,0v0.2c-0.1,0-0.2,0-0.2,0v0.2c-0.1,0-0.3,0-0.4,0.1c0,0,0,0,0,0c-0.1-0.1-0.3-0.1-0.4,0
											c0-0.1,0-0.2,0-0.2c0-0.2,0.1-0.3,0.2-0.3c0.2,0,0.4-0.1,0.6-0.2c0.1,0,0.2,0,0.3,0c0,0,0,0,0,0c0,0,0,0,0,0
											C69,82.4,69.1,82.5,69.1,82.5"/>
										<path style="clip-path:url(#SVGID_00000170987164524940214220000015810611491485793449_);fill:#5065A5;" d="M69.1,82.5
											c-0.1,0-0.2,0-0.3,0v0.2c-0.1,0-0.2,0-0.2,0v0.2c-0.1,0-0.3,0-0.4,0.1c0,0,0,0,0,0c-0.1-0.1-0.3-0.1-0.4,0
											c0-0.1,0-0.2,0-0.2c0-0.2,0.1-0.3,0.2-0.3c0.2,0,0.4-0.1,0.6-0.2c0.1,0,0.2,0,0.3,0c0,0,0,0,0,0c0,0,0,0,0,0
											C69,82.4,69.1,82.5,69.1,82.5"/>
										
											<path style="clip-path:url(#SVGID_00000170987164524940214220000015810611491485793449_);fill:none;stroke:#C2C6D8;stroke-width:0.1059;stroke-miterlimit:10;" d="
											M66,84.3L66,84.3c-0.9,0-1.7-0.7-1.7-1.7v-1.6h3.3v1.6C67.7,83.6,66.9,84.3,66,84.3z"/>
										
											<line style="clip-path:url(#SVGID_00000170987164524940214220000015810611491485793449_);fill:none;stroke:#C2C6D8;stroke-width:0.1059;stroke-miterlimit:10;" x1="67.7" y1="81.1" x2="69.2" y2="80.6"/>
										
											<path style="clip-path:url(#SVGID_00000170987164524940214220000015810611491485793449_);fill:none;stroke:#C2C6D8;stroke-width:0.1059;stroke-miterlimit:10;" d="
											M64.3,81.1c-0.4,0-0.7,0-1.1,0c-0.1,0-0.2,0-0.2,0"/>
										
											<path style="clip-path:url(#SVGID_00000170987164524940214220000015810611491485793449_);fill:none;stroke:#B4BDD8;stroke-width:0.1412;stroke-miterlimit:10;" d="
											M67.5,85.5c0.1-0.1,0-0.3-0.1-0.4c-0.1-0.1-0.3-0.1-0.4,0c-0.1,0.1-0.2,0.3-0.1,0.4"/>
										<path style="clip-path:url(#SVGID_00000170987164524940214220000015810611491485793449_);fill:#B4BDD8;" d="M66.3,86.9
											h1.8c0.1,0,0.2-0.1,0.2-0.2v-1.1c0-0.1-0.1-0.2-0.2-0.2h-1.8c-0.1,0-0.2,0.1-0.2,0.2v1.1C66.1,86.8,66.2,86.9,66.3,86.9"
											/>
										
											<path style="clip-path:url(#SVGID_00000170987164524940214220000015810611491485793449_);fill:none;stroke:#C8D6FF;stroke-width:0.1412;stroke-miterlimit:10;" d="
											M67.5,85.5c0.1-0.1,0-0.3-0.1-0.4c-0.1-0.1-0.3-0.1-0.4,0c-0.1,0.1-0.2,0.3-0.1,0.4"/>
										<path style="clip-path:url(#SVGID_00000170987164524940214220000015810611491485793449_);fill:#C8D6FF;" d="M66.4,86.9
											h1.8c0.1,0,0.2-0.1,0.2-0.2v-1.1c0-0.1-0.1-0.2-0.2-0.2h-1.8c-0.1,0-0.2,0.1-0.2,0.2v1.1C66.2,86.8,66.3,86.9,66.4,86.9"
											/>
										
											<line style="clip-path:url(#SVGID_00000170987164524940214220000015810611491485793449_);fill:none;stroke:#B4BDD8;stroke-width:3.530984e-02;stroke-miterlimit:10;" x1="66.4" y1="85.7" x2="68.1" y2="85.7"/>
										
											<line style="clip-path:url(#SVGID_00000170987164524940214220000015810611491485793449_);fill:none;stroke:#B4BDD8;stroke-width:3.530984e-02;stroke-miterlimit:10;" x1="66.4" y1="86.6" x2="68.1" y2="86.6"/>
									</g>
								</g>
							</g>
						</g>
					</g>
				</g>
			</g>
		</g>
	</g>
</g>
<path class="st31" d="M85.8,30.2"/>
<line class="st32" x1="80.4" y1="63.2" x2="81.1" y2="63.3"/>
<path class="st33" d="M92.8,27.2C92.8,27.2,92.8,27.3,92.8,27.2c0.1,0,0.1,0,0.2,0C93,27,92.9,27.1,92.8,27.2L92.8,27.2z"/>
<g>
	<path class="st31" d="M80.6,42.3c-0.7,0.2-1.3,0.3-2,0.2c0,0.3,0,0.7,0,1.1c-0.5,0-1.1-0.1-1.6-0.2c0,0.5,0,1,0,1.5l0,0
		c-0.9-0.1-1.9,0.2-2.5,0.9c-0.1,0.1-0.1,0.2-0.2,0.3c-0.8-0.5-1.9-0.6-3,0.1l0,0c0-0.5,0.1-1.1,0.2-1.6c0.2-1.1,1-2,1.7-2
		c1.6-0.1,3-0.6,4.2-1.1c0.5-0.2,1.4-0.2,1.9,0.1c0.1,0.1,0.2,0.1,0.3,0.1c0.1,0,0.1,0.1,0.2,0.1C80,42,80.3,42.1,80.6,42.3z"/>
	<path class="st31" d="M80.6,42.3c-0.7,0.2-1.3,0.3-2,0.2c0,0.3,0,0.7,0,1.1c-0.5,0-1.1-0.1-1.6-0.2c0,0.5,0,1,0,1.5l0,0
		c-0.9-0.1-1.9,0.2-2.5,0.9c-0.1,0.1-0.1,0.2-0.2,0.3c-0.8-0.5-1.9-0.6-3,0.1l0,0c0-0.5,0.1-1.1,0.2-1.6c0.2-1.1,1-2,1.7-2
		c1.6-0.1,3-0.6,4.2-1.1c0.5-0.2,1.4-0.2,1.9,0.1c0.1,0.1,0.2,0.1,0.3,0.1c0.1,0,0.1,0.1,0.2,0.1C80,42,80.3,42.1,80.6,42.3z"/>
</g>
<g id="_x31__GLASSES">
	<path class="st0" d="M58.8,55.5L58.8,55.5c-6.4,0-11.7-5.2-11.7-11.7V32.7h23.4v11.1C70.5,50.2,65.2,55.5,58.8,55.5z"/>
	<line class="st0" x1="70.5" y1="32.7" x2="81.6" y2="28.9"/>
	<path class="st0" d="M47,32.7c-2.6,0-5.1-0.1-7.7-0.1c-0.6,0-1.1,0.1-1.7,0.2"/>
</g>
<g class="st7">
	<path class="st34" d="M69.3,63.9c0.4-0.9,0.3-2-0.4-2.7c-0.7-0.7-1.9-0.8-2.8-0.1c-0.9,0.6-1.1,1.8-0.5,2.8"/>
	<path class="st35" d="M60.9,73.3h13c0.8,0,1.5-0.7,1.5-1.5v-7.5c0-0.8-0.7-1.5-1.5-1.5h-13c-0.8,0-1.5,0.7-1.5,1.5v7.5
		C59.4,72.7,60,73.3,60.9,73.3z"/>
	<path class="st36" d="M69.5,64c0.4-0.9,0.3-2-0.4-2.7c-0.7-0.7-1.9-0.8-2.8-0.1c-0.9,0.6-1.1,1.8-0.5,2.8"/>
	<path class="st37" d="M61.3,73.7h12.7c0.8,0,1.5-0.7,1.5-1.5v-7.5c0-0.8-0.7-1.5-1.5-1.5H61.3c-0.8,0-1.5,0.7-1.5,1.5v7.5
		C59.9,73,60.5,73.7,61.3,73.7z"/>
	<line class="st38" x1="61.6" y1="65.3" x2="73.7" y2="65.3"/>
	<line class="st38" x1="61.6" y1="71.7" x2="73.7" y2="71.7"/>
</g>
<g id="pocket_00000054953432588790967120000015220214679733308294_" class="st7">
	<g class="st8">
		<defs>
			<rect id="SVGID_00000036238173721638500350000006872976332479442108_" x="-1.4" y="82.1" width="5.4" height="3.8"/>
		</defs>
		<clipPath id="SVGID_00000036972592840563511330000003602415113194866094_">
			<use xlink:href="#SVGID_00000036238173721638500350000006872976332479442108_"  style="overflow:visible;"/>
		</clipPath>
		<g style="clip-path:url(#SVGID_00000036972592840563511330000003602415113194866094_);">
			<defs>
				<rect id="SVGID_00000104705527986508628760000012071836694489548427_" x="-1.4" y="82.1" width="5.4" height="3.8"/>
			</defs>
			<clipPath id="SVGID_00000129199641027938851430000007813557148648971662_">
				<use xlink:href="#SVGID_00000104705527986508628760000012071836694489548427_"  style="overflow:visible;"/>
			</clipPath>
			<path style="clip-path:url(#SVGID_00000129199641027938851430000007813557148648971662_);fill:#B4BDD8;" d="M3.8,83v1.1
				c0-0.4-0.3-0.7-0.7-0.7h-3.6c-0.4,0-0.7,0.3-0.7,0.7V83c0-0.4,0.3-0.7,0.7-0.7h3.6C3.5,82.3,3.8,82.6,3.8,83"/>
			
				<path style="clip-path:url(#SVGID_00000129199641027938851430000007813557148648971662_);fill:none;stroke:#B4BDD8;stroke-width:0.4083;stroke-miterlimit:10;" d="
				M3.8,83v1.1c0-0.4-0.3-0.7-0.7-0.7h-3.6c-0.4,0-0.7,0.3-0.7,0.7V83c0-0.4,0.3-0.7,0.7-0.7h3.6C3.5,82.3,3.8,82.6,3.8,83z"/>
			
				<path style="clip-path:url(#SVGID_00000129199641027938851430000007813557148648971662_);fill:none;stroke:#B4BDD8;stroke-width:0.4083;stroke-miterlimit:10;" d="
				M3.8,84.1v0.9c0,0.4-0.3,0.7-0.7,0.7h-3.6c-0.4,0-0.7-0.3-0.7-0.7v-0.9c0-0.4,0.3-0.7,0.7-0.7h3.6C3.5,83.3,3.8,83.6,3.8,84.1z"
				/>
		</g>
	</g>
</g>
<g>
	<path class="st42" d="M69.9,63.5c0.4-0.9,0.3-2-0.4-2.7c-0.7-0.7-1.9-0.8-2.8-0.1c-0.9,0.6-1.1,1.8-0.5,2.8"/>
	<path class="st43" d="M61.4,73h13c0.8,0,1.5-0.7,1.5-1.5V64c0-0.8-0.7-1.5-1.5-1.5h-13c-0.8,0-1.5,0.7-1.5,1.5v7.5
		C59.9,72.3,60.6,73,61.4,73z"/>
	<path class="st44" d="M70.1,63.6c0.4-0.9,0.3-2-0.4-2.7c-0.7-0.7-1.9-0.8-2.8-0.1c-0.9,0.6-1.1,1.8-0.5,2.8"/>
	<path class="st45" d="M61.9,73.3h12.7c0.8,0,1.5-0.7,1.5-1.5v-7.5c0-0.8-0.7-1.5-1.5-1.5H61.9c-0.8,0-1.5,0.7-1.5,1.5v7.5
		C60.4,72.6,61.1,73.3,61.9,73.3z"/>
	<line class="st46" x1="62.2" y1="65" x2="74.3" y2="65"/>
	<line class="st46" x1="62.2" y1="71.3" x2="74.3" y2="71.3"/>
</g>
</svg>
