<svg id="Слой_1" data-name="Слой 1" xmlns="http://www.w3.org/2000/svg" viewBox="0 0 79.26 65.84"><defs><style>.cls-1{fill:#c2c6d8;}.cls-10,.cls-11,.cls-2{fill:none;}.cls-2{stroke:#666;}.cls-11,.cls-2,.cls-9{stroke-miterlimit:10;}.cls-3{fill:#576fed;}.cls-4{fill:#7699ff;}.cls-5{fill:#1d1d1b;}.cls-6,.cls-7,.cls-9{fill:#fff;}.cls-6{isolation:isolate;opacity:0.1;}.cls-8{fill:#f76f60;}.cls-9{stroke:#8c6239;opacity:0.1;}.cls-11{stroke:#4d4d4d;}</style></defs><path class="cls-1" d="M73,27.54a42.72,42.72,0,0,1-9.33-.67c-5.28-.86-7.57-1.46-9-2.67,1.1-.15,2.14-1.37.78-3.95,2.86.75,5.52,3.88,5.52,3.88s1.91-1-.21-5.79c4.91.41,7.43,8.37,7.43,8.37A74.53,74.53,0,0,1,68.75,18,13.37,13.37,0,0,1,73,27.54Z" transform="translate(-18.57 -18)"/><path class="cls-2" d="M37.36,41.53a2.34,2.34,0,0,1-2.49,2.14c-1.29,0-1.38-.71-1.47-1.94-.1-1.4.81-2.68,1.85-2.51C37.08,39.53,37.35,40.28,37.36,41.53Z" transform="translate(-18.57 -18)"/><circle class="cls-2" cx="57.62" cy="20.88" r="9.61"/><path id="_7b505434-05e4-4733-bd03-7559c80e23bc" data-name="7b505434-05e4-4733-bd03-7559c80e23bc" class="cls-3" d="M50.64,69a14.88,14.88,0,0,0,.73-3.48c1.43.07,3.16,0,5.07,0a31,31,0,0,1-.15,3.61c-.95,7.43-11,12.06-11,12.06a9.48,9.48,0,0,0,2.18-5.72A48,48,0,0,0,50.64,69Z" transform="translate(-18.57 -18)"/><path class="cls-4" d="M95.28,49.71,95,49.32c-2.11-2.38-4.77-4.77-4.77-4.77l-2,7.49-3.68-5-3.61,6-2.18-1.77s.17-.71.41-1.87c.06-.29.13-.62.19-1,.93-4.64,2.42-13.64.83-16.77a7.5,7.5,0,0,0-2.8-3A9.51,9.51,0,0,0,73,27.33h0a38.14,38.14,0,0,1-8.93-.53c-5.28-.86-8-1.38-9.35-2.59a1.46,1.46,0,0,1-.51,0,22.6,22.6,0,0,1-3.61-1,11.14,11.14,0,0,0-11.1,4.7c-4.22,6.13-3.81,13.75-3.81,13.75A56.62,56.62,0,0,0,31,35c-2.31-2.65-7.62-3.81-7.62-3.81L26.2,47.55S24,50.61,22.39,53.27a65.78,65.78,0,0,0-3.82,8.58A44.75,44.75,0,0,0,27.22,58a52.62,52.62,0,0,0,6.67-5.71s0,5.31,1.09,8.23c1.64,4.63,7.49,5.18,7.49,5.18s-5.79,7.42-8.58,9.53c-1.09,3.54-4.76,8.58-4.76,8.58A17.92,17.92,0,0,0,42.34,78c6.19-6.19,4.76-12.46,4.76-12.46s22.4,1.09,35.41-1.9S97.83,55,97.83,55A14.22,14.22,0,0,0,95.28,49.71Z" transform="translate(-18.57 -18)"/><circle id="_24f5393d-4d01-4e9a-994e-955807d4b8cf" data-name="24f5393d-4d01-4e9a-994e-955807d4b8cf" class="cls-5" cx="40.11" cy="27.44" r="11.37"/><path id="ee505f71-9a0b-4df3-b358-d6d65d15bb5a" class="cls-6" d="M67.53,45.17A10,10,0,0,1,63.37,52a9,9,0,0,0,2.52-5.17A6.92,6.92,0,0,0,60.13,39h0a7.25,7.25,0,0,0-1.23-.07,9.27,9.27,0,0,0-8.92,8A6.4,6.4,0,0,0,49.89,48h0a8.48,8.48,0,0,1-.13-2.93,10.28,10.28,0,0,1,9.94-8.85,7.74,7.74,0,0,1,7.9,7.49A9.85,9.85,0,0,1,67.53,45.17Z" transform="translate(-18.57 -18)"/><path id="_4e30afb6-9b67-4416-9a10-73eb83fa54dc" data-name="4e30afb6-9b67-4416-9a10-73eb83fa54dc" class="cls-7" d="M62.56,36.66c2,.61,4.22,2.65,3.27,4.49-.69,1.36-2.8-.89-4.77-1.43s-4.9-.54-4.36-2C57.59,35.7,60.58,36,62.56,36.66Z" transform="translate(-18.57 -18)"/><path id="_4067f20d-e99a-4389-8852-6fcb31bee618" data-name="4067f20d-e99a-4389-8852-6fcb31bee618" class="cls-8" d="M88.91,52.52a48.31,48.31,0,0,1-13.69.27l3.34-5.58,2.86,4.43,3.27-5.11,3.67,5,2-7.49,4.76,4.77C95.58,49.25,96.06,51.23,88.91,52.52Z" transform="translate(-18.57 -18)"/><circle class="cls-9" cx="40.05" cy="27.53" r="14"/><path class="cls-2" d="M44.75,43.4l-9.12-4.12" transform="translate(-18.57 -18)"/><line class="cls-2" x1="54.19" y1="25.34" x2="67.19" y2="20.34"/><line class="cls-10" x1="16.69" y1="21.84" x2="20.69" y2="23.84"/><line class="cls-11" x1="46.99" y1="60.25" x2="46.99" y2="46.04"/><path class="cls-11" d="M65.56,64.06a2,2,0,0,1,4.08,0" transform="translate(-18.57 -18)"/><rect class="cls-10" x="37.33" y="41.03" width="0.57" height="6.1" transform="translate(4.17 -29.93) rotate(25.6)"/><path class="cls-10" d="M32.87,41.46a4.36,4.36,0,0,1,.78-1.14c1-1,1.59-.58,3.08-.17s1.85,2.37,1.92,3" transform="translate(-18.57 -18)"/><circle class="cls-2" cx="40.11" cy="27.44" r="14"/></svg>