<svg id="prefix__Слой_1" data-name="Слой 1" xmlns="http://www.w3.org/2000/svg" viewBox="0 0 127.45 105.89">
    <defs>
        <style>
            .prefix__cls-10,
            .prefix__cls-11,
            .prefix__cls-2 {
                fill: none
            }

            .prefix__cls-2 {
                stroke: #666
            }

            .prefix__cls-11,
            .prefix__cls-2 {
                stroke-miterlimit: 10
            }

            .prefix__cls-11 {
                stroke: #4d4d4d
            }
        </style>
    </defs>
    <path
        d="M73 27.54a42.72 42.72 0 01-9.33-.67c-5.28-.86-7.57-1.46-9-2.67 1.1-.15 2.14-1.37.78-3.95 2.86.75 5.52 3.88 5.52 3.88s1.91-1-.21-5.79c4.91.41 7.43 8.37 7.43 8.37a74.53 74.53 0 01.56-8.71A13.37 13.37 0 0173 27.54z"
        fill="#c2c6d8" transform="translate(5.8 2.5)"/>
    <path class="prefix__cls-2"
        d="M37.36 41.53a2.34 2.34 0 01-2.49 2.14c-1.29 0-1.38-.71-1.47-1.94-.1-1.4.81-2.68 1.85-2.51 1.83.31 2.1 1.06 2.11 2.31z"
        transform="translate(5.8 2.5)"/>
    <circle class="prefix__cls-2" cx="57.62" cy="20.88" r="9.61" transform="translate(24.37 20.41)"/>
    <path id="prefix___7b505434-05e4-4733-bd03-7559c80e23bc" data-name="7b505434-05e4-4733-bd03-7559c80e23bc"
        d="M50.64 69a14.88 14.88 0 00.73-3.48c1.43.07 3.16 0 5.07 0a31 31 0 01-.15 3.61c-.95 7.43-11 12.06-11 12.06a9.48 9.48 0 002.18-5.72A48 48 0 0050.64 69z"
        fill="#576fed" transform="translate(5.8 2.5)"/>
    <path
        d="M95.28 49.71l-.28-.39c-2.11-2.38-4.77-4.77-4.77-4.77l-2 7.49-3.68-5-3.61 6-2.18-1.77s.17-.71.41-1.87c.06-.29.13-.62.19-1 .93-4.64 2.42-13.64.83-16.77a7.5 7.5 0 00-2.8-3 9.51 9.51 0 00-4.39-1.3 38.14 38.14 0 01-8.93-.53c-5.28-.86-8-1.38-9.35-2.59a1.46 1.46 0 01-.51 0 22.6 22.6 0 01-3.61-1 11.14 11.14 0 00-11.1 4.7c-4.22 6.13-3.81 13.75-3.81 13.75A56.62 56.62 0 0031 35c-2.31-2.65-7.62-3.81-7.62-3.81l2.82 16.36s-2.2 3.06-3.81 5.72a65.78 65.78 0 00-3.82 8.58A44.75 44.75 0 0027.22 58a52.62 52.62 0 006.67-5.71s0 5.31 1.09 8.23c1.64 4.63 7.49 5.18 7.49 5.18s-5.79 7.42-8.58 9.53c-1.09 3.54-4.76 8.58-4.76 8.58A17.92 17.92 0 0042.34 78c6.19-6.19 4.76-12.46 4.76-12.46s22.4 1.09 35.41-1.9S97.83 55 97.83 55a14.22 14.22 0 00-2.55-5.29z"
        fill="#7699ff" transform="translate(5.8 2.5)"/>
    <circle id="prefix___24f5393d-4d01-4e9a-994e-955807d4b8cf" data-name="24f5393d-4d01-4e9a-994e-955807d4b8cf"
        cx="40.11" cy="27.44" r="11.37" fill="#1d1d1b" transform="translate(24.37 20.41)"/>
    <path id="prefix__ee505f71-9a0b-4df3-b358-d6d65d15bb5a"
        d="M67.53 45.17A10 10 0 0163.37 52a9 9 0 002.52-5.17A6.92 6.92 0 0060.13 39a7.25 7.25 0 00-1.23-.07 9.27 9.27 0 00-8.92 8 6.4 6.4 0 00-.09 1.07 8.48 8.48 0 01-.13-2.93 10.28 10.28 0 019.94-8.85 7.74 7.74 0 017.9 7.49 9.85 9.85 0 01-.07 1.46z"
        style="isolation:isolate" opacity=".1" fill="#fff" transform="translate(5.8 2.5)"/>
    <path id="prefix___4e30afb6-9b67-4416-9a10-73eb83fa54dc" data-name="4e30afb6-9b67-4416-9a10-73eb83fa54dc"
        d="M62.56 36.66c2 .61 4.22 2.65 3.27 4.49-.69 1.36-2.8-.89-4.77-1.43s-4.9-.54-4.36-2c.89-2.02 3.88-1.72 5.86-1.06z"
        fill="#fff" transform="translate(5.8 2.5)"/>
    <path id="prefix___4067f20d-e99a-4389-8852-6fcb31bee618" data-name="4067f20d-e99a-4389-8852-6fcb31bee618"
        d="M88.91 52.52a48.31 48.31 0 01-13.69.27l3.34-5.58 2.86 4.43 3.27-5.11 3.67 5 2-7.49 4.76 4.77c.46.44.94 2.42-6.21 3.71z"
        fill="#f76f60" transform="translate(5.8 2.5)"/>
    <circle cx="40.05" cy="27.53" r="14" stroke="#8c6239" opacity=".1" fill="#fff" stroke-miterlimit="10" transform="translate(24.37 20.41)"/>
    
    <path class="prefix__cls-2" d="M44.75 43.4l-9.12-4.12" transform="translate(5.8 2.5)"/>
    <path class="prefix__cls-2" d="M54.19 25.34l13-5" transform="translate(24.37 20.41)"/>
    <path class="prefix__cls-10" d="M16.69 21.84l4 2" transform="translate(24.37 20.41)"/>
    <path class="prefix__cls-11" d="M46.99 60.25V46.04" transform="translate(24.37 20.41)"/>
    
    <path class="prefix__cls-11" d="M65.56 64.06a2 2 0 014.08 0" transform="translate(5.8 2.5)"/>
    <path class="prefix__cls-10" transform="rotate(25.6 67.954 -5.788) translate(5.8 2.5)" d="M37.33 41.03h.57v6.1h-.57z"/>
    <path class="prefix__cls-10" d="M32.87 41.46a4.36 4.36 0 01.78-1.14c1-1 1.59-.58 3.08-.17s1.85 2.37 1.92 3"
        transform="translate(5.8 2.5)"/>
    <circle class="prefix__cls-2" cx="40.11" cy="27.44" r="14" transform="translate(24.37 20.41)"/>
</svg>