<svg xmlns="http://www.w3.org/2000/svg" xmlns:xlink="http://www.w3.org/1999/xlink" xml:space="preserve" id="Слой_1"
	x="0" y="0" style="enable-background:new 0 0 116.4 96.7" version="1.1" viewBox="0 0 116.4 96.7">
	<style>
		.st0,
		.st1 {
			fill: none;
			stroke: #273868;
			stroke-miterlimit: 10
		}

		.st1 {
			fill: #273868
		}

		.st10 {
			fill: none
		}

		.st11 {
			fill: #f7931e
		}

		.st14 {
			opacity: .1;
			fill: #dee2ee
		}

		.st15 {
			fill: #5065a5;
			stroke: #5065a5;
			stroke-miterlimit: 10
		}
	</style>
	<g id="glasses2">
		<path d="M39.8 40.4c0 1.1-1.1 1.9-2.2 1.9s-1.2-.6-1.3-1.7c-.1-1.2.7-2.4 1.7-2.2 1.5.2 1.8.8 1.8 2z"
			class="st0" />
		<circle cx="74.4" cy="38" r="8.6" class="st1" />
	</g>
	<path id="_x37_b505434-05e4-4733-bd03-7559c80e23bc"
		d="M51.5 65.2c.3-1 .5-2.3.6-3.3 1.3.1 2.9.2 4.6.2 0 1 0 2.3-.1 3.3-.9 6.7-10 11-10 11 1.2-1.5 1.9-3.3 2-5.2 1.1-2 2.1-4 2.9-6z"
		style="fill:#576fed" />
	<path
		d="M94.4 52.5s-2.1 5.1-13.9 7.8c-8.7 2-21.9 2-28.4 1.9-2.4 0-3.8-.1-3.8-.1s1.3 5.7-4.3 11.3c-3.1 3.4-7.4 5.3-12 5.3 0 0 3.3-4.6 4.3-7.8 2.5-1.9 7.8-8.7 7.8-8.7s-5.3-.5-6.8-4.7c-1-2.7-1-7.5-1-7.5-1.9 1.9-3.9 3.6-6.1 5.2-2.8 1.8-7.5 3.4-7.9 3.5.1-.3 2-5.4 3.5-7.8 1.5-2.4 3.5-5.2 3.5-5.2l-2.6-14.9s4.8 1 6.9 3.5c1.6 1.9 3 3.9 4.3 6.1 0 0-.1-.8 0-2.1.2-2.5.9-6.7 3.5-10.4.6-.8 1.2-1.6 2-2.2.1-.1 1.4-1 1.7-1.1 1.9-1 4.2-1.4 6.4-1 1.1.4 2.2.7 3.3.9 1.1.2 2.6-.9 1.2-3.6 2.6.7 5 3.5 5 3.5s1.7-.9-.2-5.3c4.4.4 6.7 7.6 6.7 7.6 0-2.6.1-5.3.4-7.9 2.4 2.2 3.8 5.2 3.9 8.5 0 0 2.2 0 4.2 1.4.8.6 1.6 1.3 2.2 2.3.1.1.1.2.1.2.3.5.5 1.3.6 2.1v.3c.1 1.6 0 3.5-.2 5.5-.3 2.7-.8 5.5-1.1 7.4-.3 1.6-.5 2.6-.5 2.6l2 1.6 3.3-5.5 3.3 4.5.1-.5.1-.3 1.6-6s2.4 2.2 4.3 4.3c.1.1.2.2.3.4 1.1 1.5 1.9 3.2 2.3 4.9z"
		style="fill:#7699ff" />
	<circle id="_x32_4f5393d-4d01-4e9a-994e-955807d4b8cf" cx="58.8" cy="43.8" r="10.3" style="fill:#1d1d1b" />
	<path id="ee505f71-9a0b-4df3-b358-d6d65d15bb5a"
		d="M66.9 43.5c-.3 2.5-1.7 4.8-3.8 6.3 1.3-1.3 2.1-2.9 2.3-4.7.5-3.4-1.8-6.6-5.2-7.2-.4-.1-.7-.1-1.1-.1-4.1.1-7.5 3.2-8.1 7.2-.1.3-.1.7-.1 1.1-.2-.9-.2-1.8-.1-2.7.6-4.5 4.5-7.9 9-8 3.9-.1 7.1 3 7.2 6.8-.1.5-.1.9-.1 1.3z"
		style="opacity:.1;fill:#fff;enable-background:new" />
	<path id="_x34_e30afb6-9b67-4416-9a10-73eb83fa54dc"
		d="M62.3 35.8c1.8.6 3.8 2.4 3 4.1-.6 1.2-2.5-.8-4.3-1.3s-4.5-.5-4-1.8c.8-1.9 3.5-1.6 5.3-1z"
		style="fill:#fff" />
	<path id="_x34_067f20d-e99a-4389-8852-6fcb31bee618"
		d="M86.3 50.2c-4.1.7-8.3.8-12.4.2l3-5.1 2.6 4 3-4.6 3.3 4.5 1.8-6.8 4.3 4.3c.5.6.9 2.3-5.6 3.5z"
		style="fill:#f76f60" />
	<path d="m80.4 63.2.7.1" class="st10" />
	<g>
		<path d="M23 14.3zM23.7 15.2z" class="st11" />
	</g>
	<path d="m65.5 60.8-.3.3M64.5 61.7l-.2.2" class="st10" />
	<g id="glasses1">
		<path d="M46.4 42c-2.8-1.2-7.9-3.7-8.5-3.7M71.4 42 83 37.5" class="st0" />
		<path
			d="M71.3 43.8c0 2.2-.6 4.3-1.6 6.2-2.1 3.8-6.2 6.3-10.9 6.3-6.9 0-12.5-5.6-12.5-12.5 0-.6 0-1.1.1-1.7.8-6.1 6-10.8 12.4-10.8 6.9 0 12.5 5.6 12.5 12.5z"
			class="st1" />
		<path
			d="M67.6 46.2c-.1.5-.2 1.1-.4 1.6 1-4.8-2-9.8-7-11.5-2.9-1-5.9-.7-8.2.7 2.1-2 4.9-3 7.9-2.5 5.2.9 8.6 6.2 7.7 11.7zM81.7 38c0 .5 0 1-.1 1.5s-.2.9-.3 1.3c.2-.9.2-1.8.1-2.7-.3-1.7-1.7-4.1-2.4-4.1-.1-.9-.4-2.1-.6-2.7 0-.1.2.5.2.4 2.1 1.6 3.1 3.5 3.1 6.3z"
			class="st14" />
	</g>
	<g id="hat">
		<path d="m74.9 27.1-27.3-2.4 1.7-5.2c.2-2.5 1.2-5.4 3.3-5.2l19.5 1.2c2.5-.1 1.8 3.6 1.6 6.1l1.2 5.5z"
			class="st15" />
		<path
			d="M79.9 28.1c-.3.7-8.9 1.9-19.5.8-10.7-1.2-19.2-3.1-19-4.3.1-.6 2.9-.9 6.2-1 3.2.8 7.1 1.6 12.4 2.2 6.9.8 12.1.8 15.1.4 2.1.5 5.2.7 4.8 1.9z"
			class="st15" />
		<defs>
			<path id="SVGID_1_"
				d="M78.3 27.1c0 .9-7.6 2-17.3.9-10-1.1-17.6-3.3-17.3-3.9.2-.4.7-.5 3.8-.6 3.2 1.2 8.1 2.1 13.1 2.7 6.1.7 10.3.5 14.2 0 .3 0 .5.1.9.1 2.4.4 2.6.5 2.6.8z" />
		</defs>
		<use xlink:href="#SVGID_1_" style="overflow:visible;fill:#4a5e99" />
		<clipPath id="SVGID_00000148628397918798183070000016499568777485821372_">
			<use xlink:href="#SVGID_1_" style="overflow:visible" />
		</clipPath>
		<g style="clip-path:url(#SVGID_00000148628397918798183070000016499568777485821372_)">
			<path
				d="M78.5 27.3c-.2.6-9.2 1.5-18.2.5s-18-2.4-17.2-3.7c.3-.4 2-1.2 4.8-1.4 2.8.6 6.9 1.3 11.4 1.8 5.9.6 10.3.8 12.9.6 1.9.5 6.6 1.6 6.3 2.2z"
				style="fill:#4a5e99" />
		</g>
	</g>
</svg>