<?xml version="1.0" encoding="utf-8"?>
<!-- Generator: Adobe Illustrator 26.0.1, SVG Export Plug-In . SVG Version: 6.00 Build 0)  -->
<svg version="1.1" id="Слой_1" xmlns="http://www.w3.org/2000/svg" xmlns:xlink="http://www.w3.org/1999/xlink" x="0px" y="0px"
	 viewBox="0 0 116.4 96.7" style="enable-background:new 0 0 116.4 96.7;" xml:space="preserve">
<style type="text/css">
	.st0{fill:none;stroke:#273868;stroke-miterlimit:10;}
	.st1{fill:#273868;stroke:#273868;stroke-miterlimit:10;}
	.st2{fill:#576FED;}
	.st3{fill:#7699FF;}
	.st4{fill:#1D1D1B;}
	.st5{opacity:0.1;fill:#FFFFFF;enable-background:new    ;}
	.st6{fill:#FFFFFF;}
	.st7{fill:#F76F60;}
	.st8{display:none;fill:#FF8A09;}
	.st9{fill:#5065A5;}
	.st10{fill:none;}
	.st11{fill:#F7931E;}
	.st12{display:none;fill:#28A745;}
	.st13{display:none;fill:#C2C6D8;}
	.st14{opacity:0.1;fill:#DEE2EE;}
	.st15{fill:#5065A5;stroke:#5065A5;stroke-miterlimit:10;}
	.st16{clip-path:url(#SVGID_00000165207540118147194970000007377914770438847422_);}
	.st17{fill:#4A5E99;}
</style>
<g id="glasses2">
	<path class="st0" d="M39.8,40.4c0,1.1-1.1,1.9-2.2,1.9s-1.2-0.6-1.3-1.7c-0.1-1.2,0.7-2.4,1.7-2.2C39.5,38.6,39.8,39.2,39.8,40.4z"
		/>
	<circle class="st1" cx="74.4" cy="38" r="8.6"/>
</g>
<g>
	<path id="_x37_b505434-05e4-4733-bd03-7559c80e23bc" class="st2" d="M51.5,65.2c0.3-1,0.5-2.3,0.6-3.3c1.3,0.1,2.9,0.2,4.6,0.2
		c0,1,0,2.3-0.1,3.3c-0.9,6.7-10,11-10,11c1.2-1.5,1.9-3.3,2-5.2C49.7,69.2,50.7,67.2,51.5,65.2z"/>
	<path class="st3" d="M94.4,52.5c0,0-2.1,5.1-13.9,7.8c-8.7,2-21.9,2-28.4,1.9c-2.4,0-3.8-0.1-3.8-0.1s1.3,5.7-4.3,11.3
		c-3.1,3.4-7.4,5.3-12,5.3c0,0,3.3-4.6,4.3-7.8c2.5-1.9,7.8-8.7,7.8-8.7s-5.3-0.5-6.8-4.7c-1-2.7-1-7.5-1-7.5
		c-1.9,1.9-3.9,3.6-6.1,5.2c-2.8,1.8-7.5,3.4-7.9,3.5c0.1-0.3,2-5.4,3.5-7.8c1.5-2.4,3.5-5.2,3.5-5.2l-2.6-14.9c0,0,4.8,1,6.9,3.5
		c1.6,1.9,3,3.9,4.3,6.1c0,0-0.1-0.8,0-2.1c0.2-2.5,0.9-6.7,3.5-10.4c0.6-0.8,1.2-1.6,2-2.2c0.1-0.1,1.4-1,1.7-1.1
		c1.9-1,4.2-1.4,6.4-1c1.1,0.4,2.2,0.7,3.3,0.9c1.1,0.2,2.6-0.9,1.2-3.6c2.6,0.7,5,3.5,5,3.5s1.7-0.9-0.2-5.3
		c4.4,0.4,6.7,7.6,6.7,7.6c0-2.6,0.1-5.3,0.4-7.9c2.4,2.2,3.8,5.2,3.9,8.5c0,0,2.2,0,4.2,1.4c0.8,0.6,1.6,1.3,2.2,2.3
		c0.1,0.1,0.1,0.2,0.1,0.2c0.3,0.5,0.5,1.3,0.6,2.1c0,0.1,0,0.2,0,0.3c0.1,1.6,0,3.5-0.2,5.5c-0.3,2.7-0.8,5.5-1.1,7.4
		c-0.3,1.6-0.5,2.6-0.5,2.6l2,1.6l3.3-5.5l3.3,4.5l0.1-0.5l0.1-0.3l1.6-6c0,0,2.4,2.2,4.3,4.3c0.1,0.1,0.2,0.2,0.3,0.4
		C93.2,49.1,94,50.8,94.4,52.5z"/>
	<circle id="_x32_4f5393d-4d01-4e9a-994e-955807d4b8cf" class="st4" cx="58.8" cy="43.8" r="10.3"/>
	<path id="ee505f71-9a0b-4df3-b358-d6d65d15bb5a" class="st5" d="M66.9,43.5c-0.3,2.5-1.7,4.8-3.8,6.3c1.3-1.3,2.1-2.9,2.3-4.7
		c0.5-3.4-1.8-6.6-5.2-7.2l0,0c-0.4-0.1-0.7-0.1-1.1-0.1C55,37.9,51.6,41,51,45c-0.1,0.3-0.1,0.7-0.1,1.1l0,0
		c-0.2-0.9-0.2-1.8-0.1-2.7c0.6-4.5,4.5-7.9,9-8c3.9-0.1,7.1,3,7.2,6.8C66.9,42.7,66.9,43.1,66.9,43.5z"/>
	<path id="_x34_e30afb6-9b67-4416-9a10-73eb83fa54dc" class="st6" d="M62.3,35.8c1.8,0.6,3.8,2.4,3,4.1c-0.6,1.2-2.5-0.8-4.3-1.3
		s-4.5-0.5-4-1.8C57.8,34.9,60.5,35.2,62.3,35.8z"/>
	<path id="_x34_067f20d-e99a-4389-8852-6fcb31bee618" class="st7" d="M86.3,50.2c-4.1,0.7-8.3,0.8-12.4,0.2l3-5.1l2.6,4l3-4.6
		l3.3,4.5l1.8-6.8l4.3,4.3C92.4,47.3,92.8,49,86.3,50.2z"/>
</g>
<path class="st8" d="M75.7,26.6l-24.5-3.8c1.2-5.1,5.6-10,13.9-9.9c0.2,0,0.5,0,0.7,0.1c6.8,1,10.1,7,10,12.7
	C75.7,26.2,75.8,26.4,75.7,26.6z"/>
<path class="st9" d="M85.8,30.2"/>
<line class="st10" x1="80.4" y1="63.2" x2="81.1" y2="63.3"/>
<path class="st11" d="M103.5,29.8"/>
<g>
	<path class="st12" d="M20,10.7c-0.1,0-0.1,0-0.2,0.1l-3.4,2.4l0.4,0.9c0,0.1,0.1,0.1,0.1,0.2l1.5,1.4l0.8-0.7l1.8-1.6l1.2-1
		l-1.1-1.5c0-0.1-0.1-0.1-0.2-0.1L20,10.7z M21.4,12l-3.2,2.5L17.4,14l-0.3-0.6l3-2.2l0.8,0.1L21.4,12z"/>
	<path class="st13" d="M24.9,15.3c-0.4,0.4-0.7,0.9-1.1,1.3c0.6-0.1,1.1-0.3,1.7-0.4c-0.3,0.5-0.5,0.9-0.8,1.4
		c0.5-0.2,1-0.3,1.5-0.4c-0.3,0.4-0.5,0.9-0.8,1.3l0,0c0.5-0.2,1-0.3,1.5-0.4c-0.3,0.5-0.5,0.9-0.7,1.4l0,0c0.5-0.1,1.1-0.2,1.6-0.2
		c-0.3,0.4-0.5,0.9-0.7,1.3c0.5-0.1,0.9-0.3,1.4-0.4l0,0c-0.2,0.4-0.4,0.9-0.6,1.3c0.5-0.1,0.9-0.1,1.4-0.2c-0.2,0.3-0.4,0.7-0.6,1
		c0.4-0.1,0.9-0.1,1.3-0.2c-0.2,0.4-0.3,0.8-0.5,1.2c0.4,0,0.9,0,1.3,0c0,0,0,0,0.1,0c-0.9,0.6-1.7,1.3-2.4,2.1
		c-3.3-3.3-6.7-6.7-10-10c1.3-1.1,2-1.8,3.9-3.2c-0.2,0.6-0.4,1.1-0.5,1.7c0.6-0.2,1.1-0.4,1.7-0.6c-0.3,0.5-0.7,0.9-1,1.4
		c0.6-0.2,1.1-0.3,1.7-0.4c-0.3,0.5-0.7,0.9-1,1.4C23.8,15.6,24.3,15.5,24.9,15.3z"/>
	<path class="st11" d="M23,14.3L23,14.3L23,14.3z"/>
	<path class="st11" d="M23.7,15.2L23.7,15.2L23.7,15.2z"/>
</g>
<line class="st10" x1="65.5" y1="60.8" x2="65.2" y2="61.1"/>
<line class="st10" x1="64.5" y1="61.7" x2="64.3" y2="61.9"/>
<g id="glasses1">
	<path class="st0" d="M46.4,42c-2.8-1.2-7.9-3.7-8.5-3.7"/>
	<line class="st0" x1="71.4" y1="42" x2="83" y2="37.5"/>
	<path class="st1" d="M71.3,43.8c0,2.2-0.6,4.3-1.6,6.2c-2.1,3.8-6.2,6.3-10.9,6.3c-6.9,0-12.5-5.6-12.5-12.5c0-0.6,0-1.1,0.1-1.7
		c0.8-6.1,6-10.8,12.4-10.8C65.7,31.3,71.3,36.9,71.3,43.8z"/>
	<path class="st14" d="M67.6,46.2c-0.1,0.5-0.2,1.1-0.4,1.6c1-4.8-2-9.8-7-11.5c-2.9-1-5.9-0.7-8.2,0.7c2.1-2,4.9-3,7.9-2.5
		C65.1,35.4,68.5,40.7,67.6,46.2z"/>
	<path class="st14" d="M81.7,38c0,0.5,0,1-0.1,1.5c-0.1,0.5-0.2,0.9-0.3,1.3c0.2-0.9,0.2-1.8,0.1-2.7c-0.3-1.7-1.7-4.1-2.4-4.1
		c-0.1-0.9-0.4-2.1-0.6-2.7c0-0.1,0.2,0.5,0.2,0.4C80.7,33.3,81.7,35.2,81.7,38z"/>
</g>
<g id="hat">
	<path class="st15" d="M74.9,27.1l-27.3-2.4l1.7-5.2c0.2-2.5,1.2-5.4,3.3-5.2l19.5,1.2c2.5-0.1,1.8,3.6,1.6,6.1L74.9,27.1z"/>
	<path class="st15" d="M79.9,28.1c-0.3,0.7-8.9,1.9-19.5,0.8c-10.7-1.2-19.2-3.1-19-4.3c0.1-0.6,2.9-0.9,6.2-1
		c3.2,0.8,7.1,1.6,12.4,2.2c6.9,0.8,12.1,0.8,15.1,0.4C77.2,26.7,80.3,26.9,79.9,28.1z"/>
	<g>
		<defs>
			<path id="SVGID_1_" d="M78.3,27.1C78.3,28,70.7,29.1,61,28c-10-1.1-17.6-3.3-17.3-3.9c0.2-0.4,0.7-0.5,3.8-0.6
				c3.2,1.2,8.1,2.1,13.1,2.7c6.1,0.7,10.3,0.5,14.2,0c0.3,0,0.5,0.1,0.9,0.1C78.1,26.7,78.3,26.8,78.3,27.1z"/>
		</defs>
		<use xlink:href="#SVGID_1_"  style="overflow:visible;fill:#4A5E99;"/>
		<clipPath id="SVGID_00000148628397918798183070000016499568777485821372_">
			<use xlink:href="#SVGID_1_"  style="overflow:visible;"/>
		</clipPath>
		<g style="clip-path:url(#SVGID_00000148628397918798183070000016499568777485821372_);">
			<path class="st17" d="M78.5,27.3c-0.2,0.6-9.2,1.5-18.2,0.5c-9-1-18-2.4-17.2-3.7c0.3-0.4,2-1.2,4.8-1.4
				c2.8,0.6,6.9,1.3,11.4,1.8c5.9,0.6,10.3,0.8,12.9,0.6C74.1,25.6,78.8,26.7,78.5,27.3z"/>
		</g>
	</g>
</g>
</svg>
