<?xml version="1.0" encoding="utf-8"?>
<!-- Generator: Adobe Illustrator 26.0.1, SVG Export Plug-In . SVG Version: 6.00 Build 0)  -->
<svg version="1.1" id="Слой_1" xmlns="http://www.w3.org/2000/svg" xmlns:xlink="http://www.w3.org/1999/xlink" x="0px" y="0px"
	 viewBox="0 0 116.4 96.7" style="enable-background:new 0 0 116.4 96.7;" xml:space="preserve">
<style type="text/css">
	.st0{fill:#576FED;}
	.st1{fill:#7699FF;}
	.st2{fill:#1D1D1B;}
	.st3{fill:none;}
	.st4{opacity:0.1;fill:#FFFFFF;enable-background:new    ;}
	.st5{fill:#FFFFFF;}
	.st6{fill:#F76F60;}
	.st7{fill:#FF8A09;stroke:#FF8A09;stroke-miterlimit:10;}
	.st8{fill:none;stroke:#FF8A09;stroke-miterlimit:10;}
	.st9{fill:#5065A5;}
	.st10{display:none;fill:#EB8A04;}
	.st11{fill:#F18A00;}
	.st12{fill:#273868;}
	.st13{fill:#C8D6FF;}
	.st14{display:none;fill:#C2C6D8;}
	.st15{clip-path:url(#SVGID_00000085966163310596456650000009301010302910782854_);fill:#A3C2DA;}
	.st16{fill:none;stroke:#FF8A09;stroke-width:0.5;stroke-miterlimit:10;}
	.st17{clip-path:url(#SVGID_00000077324058788265851740000007829753807710979976_);fill:#A3C2DA;}
</style>
<g>
	<path id="_x37_b505434-05e4-4733-bd03-7559c80e23bc" class="st0" d="M51.5,65.2c0.3-1,0.5-2,0.6-3c1.3,0.1,2.9,0.1,4.6,0.1
		c0,1,0,2.1-0.1,3.1c-0.9,6.7-10,11-10,11c1.2-1.5,1.9-3.3,2-5.2C49.7,69.2,50.7,67.2,51.5,65.2z"/>
	<path class="st1" d="M94.4,52.5c0,0-2.1,5.1-13.9,7.8c-8.7,2-21.9,2-28.4,1.9c-2.4,0-3.8-0.1-3.8-0.1s1.3,5.7-4.3,11.3
		c-3.1,3.4-7.4,5.3-12,5.3c0,0,3.3-4.6,4.3-7.8c2.5-1.9,7.8-8.7,7.8-8.7s-5.3-0.5-6.8-4.7c-1-2.7-1-7.5-1-7.5l0-0.6
		c-1.3-0.2-2.5,0.5-3.6,1.5c0,0,0,0,0,0c-0.5,0.7-0.8,1.3-1.2,1.9c-0.2,0.3-0.7,1.2-1.3,2.4c0,0,0,0,0,0c-2.8,1.8-7.5,3.4-7.9,3.5
		c0.1-0.2,1.3-3.4,2.5-5.9v0c0.3-0.7,0.7-1.3,1-1.8c1.5-2.4,3.5-5.2,3.5-5.2l0,0l0-0.3l0-0.1l0,0l-0.5-2.7l-0.3-1.5l-0.2-0.9l-1-5.6
		c1.4-0.4,2.5-0.7,3.6-0.4c0.6,0.1,1.1,0.5,1.7,1c0.4,0.3,0.7,0.6,1,1c0.1,0.1,0.2,0.2,0.2,0.2c0.2,0.2,0.8,0.9,3.1,2.5l0,0
		c0,0,0,0,0,0c0.3,0.5,0.6,1,1,1.5c0,0,0-0.1,0-0.2l0-0.1c0-0.3,0-1,0.1-1.9c0-0.6,0.1-1.2,0.2-2c0.4-2.4,1.2-5.6,3.2-8.4
		c0.6-0.8,1.2-1.6,2-2.2c0.1-0.1,0.3-0.2,0.4-0.3c0.2-0.1,0.4-0.2,0.5-0.4c0.2-0.2,0.5-0.3,0.8-0.4c1.9-1,4.2-1.4,6.4-1
		c1.1,0.4,2.2,0.7,3.3,0.9c1.1,0.2,2.6-0.9,1.2-3.6c2.6,0.7,5,3.5,5,3.5s1.7-0.9-0.2-5.3c4.4,0.4,6.7,7.6,6.7,7.6
		c0-2.6,0.1-5.3,0.4-7.9c2.4,2.2,3.8,5.2,3.9,8.5c0,0,2.2,0,4.2,1.4c0.9,0.6,1.7,1.4,2.3,2.6c0.3,0.6,0.5,1.4,0.6,2.4
		c0.3,3.7-0.7,9.5-1.3,12.9c-0.3,1.6-0.5,2.6-0.5,2.6l2,1.6l3.3-5.5l3.3,4.5l0.1-0.5l0.1-0.3l1.6-6c0,0,2.4,2.2,4.3,4.3
		c0.1,0.1,0.2,0.2,0.3,0.4v0C93.2,49.1,94,50.8,94.4,52.5z"/>
	<circle id="_x32_4f5393d-4d01-4e9a-994e-955807d4b8cf" class="st2" cx="58.8" cy="43.8" r="10.3"/>
	<path class="st3" d="M69.1,43.8c0,5.7-4.6,10.3-10.3,10.3c-5.7,0-10.3-4.6-10.3-10.3c0-5.7,4.6-10.3,10.3-10.3
		C64.5,33.5,69.1,38.1,69.1,43.8z"/>
	<path id="ee505f71-9a0b-4df3-b358-d6d65d15bb5a" class="st4" d="M66.9,43.5c-0.3,2.5-1.7,4.8-3.8,6.3c1.3-1.3,2.1-2.9,2.3-4.7
		c0.5-3.4-1.8-6.6-5.2-7.2c0,0,0,0,0,0c-0.4-0.1-0.7-0.1-1.1-0.1c-4.1,0.1-7.5,3.2-8.1,7.2c-0.1,0.3-0.1,0.7-0.1,1.1l0,0
		c-0.2-0.9-0.2-1.8-0.1-2.7c0.6-4.5,4.5-7.9,9-8c3.9-0.1,7.1,3,7.2,6.8C66.9,42.7,66.9,43.1,66.9,43.5z"/>
	<path id="_x34_e30afb6-9b67-4416-9a10-73eb83fa54dc" class="st5" d="M62.3,35.8c1.8,0.6,3.8,2.4,3,4.1c-0.6,1.2-2.5-0.8-4.3-1.3
		s-4.5-0.5-4-1.8C57.8,34.9,60.5,35.2,62.3,35.8z"/>
	<path id="_x34_067f20d-e99a-4389-8852-6fcb31bee618" class="st6" d="M86.3,50.2c-4.1,0.7-8.3,0.8-12.4,0.2l3-5.1l2.6,4l3-4.6
		l3.3,4.5l1.8-6.8l4.3,4.3C92.4,47.3,92.8,49,86.3,50.2z"/>
</g>
<g id="glasses">
	<path class="st7" d="M78.6,32.8c-0.2-0.6-1.2-0.2-1.6,0.6c-0.3,0.6-0.4,0.9-0.7,1.4c-0.8,1.1-3.7,1.1-5.5,0.8
		c-1.4-0.2-2.1-0.1-3.2-0.9c-0.7-0.5-4.4-2.9-8.9-3c-3.1-0.1-6.1,1.2-6.9,1.7c-4.2,2.4-4.1,5.5-5.4,6.5c-3-1.6-5.8-2.8-8.1-3.7
		c-0.6-0.2-1.2-0.5-1.8-0.6c-0.1,0-0.2,0-0.2-0.1c-0.8-0.2-1.5-0.4-2-0.5c-0.8-0.1-1.3-0.1-1.6,0.1c-0.1,0.1-0.1,0.2-0.1,0.3
		c0,0.2,0.4,0.4,1.2,0.7c0.5,0.3,1.3,0.6,2.1,1c0.7,0.3,1.5,0.7,2.3,1.2c3,1.6,6.3,4.1,7.7,7.7c1.2,2.9,1.6,4.3,3.5,6.2
		c2.6,2.7,5.8,3.6,7.8,3.7c1.9,0.1,5.5,0.3,8.8-1.8c4.1-2.7,5.3-8.1,5.4-8.9c0.5-2.5,0.1-2.3,1-3.4c2-2.1,4.6-1.1,5.7-1.5
		C78.6,40.1,78.7,38.2,78.6,32.8z M58.8,54.1c-5.7,0-10.3-4.6-10.3-10.3c0-5.7,4.6-10.3,10.3-10.3c5.7,0,10.3,4.6,10.3,10.3
		C69.1,49.5,64.5,54.1,58.8,54.1z"/>
	<path class="st8" d="M69.1,43.8c0,5.7-4.6,10.3-10.3,10.3c-5.7,0-10.3-4.6-10.3-10.3c0-5.7,4.6-10.3,10.3-10.3
		C64.5,33.5,69.1,38.1,69.1,43.8z"/>
</g>
<g id="cloack">
	<path class="st9" d="M39.7,51.5c-0.1-0.1-0.3-0.3-0.4-0.4c-1.1-1-2.1-1.6-3-1.7c-1.3-0.2-2.5,0.5-3.6,1.5c0,0,0,0,0,0
		c-0.5,0.7-0.8,1.3-1.2,1.9c-0.2,0.3-0.7,1.2-1.3,2.4c0,0,0,0,0,0c-2.6,4.6-8,13.8-8.1,13.4c-0.9-2.7-3-4.6-3.5-7.5
		c-0.2-1.1,0-2,0.2-2.9c0-0.1,0.1-0.3,0.1-0.4h0v0c0.5-0.5,1-0.9,1.5-1.3c1.5-1.3,3-2.6,4.4-3.8c1.8-1.5,3.5-3,5-4.3
		c0.7-0.6,1.6-1.4,2.8-1.8c0.8-0.2,1.6-0.3,2.6-0.1c1.2,0.3,2.4,1,3.4,1.8c0.2,0.2,0.5,0.4,0.7,0.6l0.2,0.1l0.3,2.1
		C40,51.5,39.9,51.7,39.7,51.5z"/>
	<path class="st9" d="M39.3,47.8l-0.1-0.5L39,46.2v0l0-0.2l-0.1-0.7l-0.6-3.5c0,0-0.1-0.5-0.2-1l-0.2-0.7l0-0.1l-0.1-0.3
		c0-0.2-0.1-0.3-0.1-0.3c0,0,0,0,0,0c-0.3-0.2-0.6-0.4-0.8-0.5c0,0,0,0,0,0c-2.3-1.6-2.9-2.3-3.1-2.5c-0.1-0.1-0.2-0.2-0.2-0.2
		c-0.3-0.3-0.7-0.7-1-1c-0.6-0.5-1.1-0.9-1.7-1c-1.1-0.3-2.2,0.1-3.6,0.4c-1.8,0.4-4,0.8-7.1-0.2c-5.4-1-8.6-2.3-6.9,1.3
		c0.3,0.8,1.1,3.1,1.2,4.4v0l0,0v0.2c0.1,2,0.1,4.1,0.6,6.1c0.4,1.7,1.1,3.2,1.9,4.2c0.2,0.3,0.5,0.6,0.7,0.9c0,0,0,0,0.1,0
		c0.8-0.4,1.6-0.8,2.3-1.2c0.6-0.3,1.2-0.6,1.8-0.9c0.7-0.3,1.3-0.7,1.9-1c0,0,0.1,0,0.1,0c1.4-0.8,2.8-1.5,4.1-2.2
		c0.2-0.1,0.4-0.2,0.7-0.4c0.2-0.1,0.3-0.2,0.5-0.3l0.2,0l2.2,0.2h0.1l5.8,0.4l1.1,1l0,0c0.3,0.3,0.6,0.6,0.9,0.9L39.3,47.8z
		 M37.2,40.2C37.2,40.2,37.2,40.2,37.2,40.2C37.2,40.2,37.2,40.3,37.2,40.2C37.2,40.2,37.2,40.2,37.2,40.2z M36.8,40.3
		c0,0,0,0.1,0,0.1C36.8,40.3,36.8,40.3,36.8,40.3C36.7,40.3,36.8,40.3,36.8,40.3z"/>
	<path class="st10" d="M38.5,46.9c0.3,0.3,0.6,0.6,0.9,0.9l0.1,0.8l0.1,0.4l0,0L39.5,49c-1.2-1.1-2.6-2.1-4.1-2.5
		c-1-0.2-1.9-0.2-2.6,0.1c-1.3,0.4-2.2,1.2-2.8,1.8c-3.1,2.7-6.7,5.8-10.9,9.4c0.1-0.5,0.2-1.1,0.3-1.8c0.1-0.8,0-1.5-0.1-2.1
		c-0.2-1.1-0.8-1.8-1.3-2.5c0,0-0.1-0.1-0.1-0.1c4.4-2.3,8.2-4.3,11.5-6.1l8.2,0.6L38.5,46.9z"/>
	<polygon class="st11" points="39.6,49.2 39.5,49 39.6,49.1 	"/>
	<path class="st12" d="M15.2,39.4c4.5,1,8.2,1.2,12.7,0.3c0,0,1.7-0.3,1.7-0.3c4.3-0.3,7.5,3.4,9.6,6.7c0,0,0,0,0,0l-0.1,0
		c0,0,0,0,0,0l0,0c-2.2-2.9-5.4-6.3-9.3-5.9c-2.8,0.5-5.6,1.2-8.5,1.2c-2.3,0-4.6-0.5-6.8-1l-0.1-1.3L15.2,39.4z"/>
	<path class="st12" d="M39.6,49.1L39.4,49c-1.2-1.1-2.6-2.1-4.1-2.5c-1-0.2-1.9-0.2-2.6,0.1c-1.3,0.4-2.2,1.2-2.8,1.8
		c-3.1,2.7-6.7,5.8-10.9,9.4c0.1-0.5,0.2-1.1,0.3-1.8c0.1-0.8,0-1.5-0.1-2.1c-0.2-1.1-1.5-2.6-1.5-2.6c4.4-2.3,8.3-4.3,11.5-6.1
		c0.1-0.1,0.2-0.1,0.3-0.2c1.1-0.6,3.1-1.7,5.8-0.5c1.6,0.7,3,1.9,4.1,3.2l0.1,0.8L39.6,49.1z"/>
</g>
<path class="st13" d="M40.5,51.7l-0.3,0.1c-0.2,0-0.4-0.1-0.4-0.3l-0.1-0.3l-0.6-2.8l-0.3-1.4l0,0l0-0.1l0,0l-0.5-2.4l-1.1-5.2
	c0-0.2,0.1-0.4,0.2-0.4l0,0h0l0.3-0.1c0.2,0,0.4,0.1,0.4,0.3l0.1,0.3l0.1,0.4l0.1,0.3l0,0.1l0.2,0.7l2.3,10.4
	C40.8,51.5,40.7,51.7,40.5,51.7z"/>
<g id="logo">
	<path class="st14" d="M30.9,34.9c-8.2,0.4-9-0.2-9.5-0.4c-0.2-0.1,1.8-0.8,3.4-2.2c0.6-0.5,0.5-0.5,3.7-3.2
		C30.5,30.3,31.6,33.5,30.9,34.9z"/>
	<g>
		<defs>
			<path id="SVGID_1_" d="M32.4,45.5c-8.2,0.4-9-0.2-9.5-0.4c-0.2-0.1,1.8-0.8,3.4-2.2c0.6-0.5,0.5-0.5,3.7-3.2
				C32,41,33.1,44.1,32.4,45.5z"/>
		</defs>
		<use xlink:href="#SVGID_1_"  style="overflow:visible;fill:#C8D6FF;"/>
		<clipPath id="SVGID_00000108269764739808610470000014176957505019964066_">
			<use xlink:href="#SVGID_1_"  style="overflow:visible;"/>
		</clipPath>
		<path style="clip-path:url(#SVGID_00000108269764739808610470000014176957505019964066_);fill:#A3C2DA;" d="M14.6,39.5
			c4.5,1,8.8,1.2,13.3,0.3c0,0,1.7-0.3,1.7-0.3c4.2-0.3,7.5,3.4,9.5,6.6c0,0,0,0,0,0l-0.1,0c0,0,0,0,0,0l0,0
			c-2.2-2.9-5.4-6.4-9.4-5.9c-2.8,0.5-5.6,1.2-8.5,1.2c-2.3,0-4.6-0.5-6.8-1L14.6,39.5L14.6,39.5z"/>
	</g>
	<path class="st16" d="M31.2,43.5c0,0-0.3-1.2-0.8-1.6c-0.6-0.4-1.4,0-1.6,0.7c-0.2,0.8,0.2,1.1,0.2,1.6c-0.1,1.1-1.7,0.5-1.8,0.5
		c-0.2-0.1-0.4-0.1-0.8-0.6"/>
	<g>
		<defs>
			<path id="SVGID_00000144314474249428521430000018205651373148978826_" d="M32.4,45.6c-8.2,0.4-9-0.2-9.5-0.4
				c-0.2-0.1,1.8-0.8,3.4-2.2c0.6-0.5,0.5-0.5,3.7-3.2C32.1,41,33.1,44.1,32.4,45.6z"/>
		</defs>
		<clipPath id="SVGID_00000106828096711560561910000016587140345873064337_">
			<use xlink:href="#SVGID_00000144314474249428521430000018205651373148978826_"  style="overflow:visible;"/>
		</clipPath>
		<path style="clip-path:url(#SVGID_00000106828096711560561910000016587140345873064337_);fill:#A3C2DA;" d="M39.5,49.1L39.4,49
			c-1.2-1.1-2.6-2.1-4.1-2.5c-1-0.2-1.9-0.2-2.6,0.1c-1.3,0.4-2.2,1.2-2.8,1.8c-3.1,2.7-6.7,5.8-10.9,9.4c0.1-0.5,0.2-1.1,0.3-1.8
			c0.1-0.8,0-1.5-0.1-2.1c-0.2-1.1-0.8-1.8-1.3-2.5c0,0-0.1-0.1-0.1-0.1c4.4-2.3,8.2-4.3,11.5-6.1c0.1-0.1,0.2-0.1,0.3-0.2
			c1.1-0.6,3.1-1.7,5.8-0.5c1.6,0.7,3,1.9,4.1,3.2l0.1,0.8L39.5,49.1z"/>
	</g>
</g>
<path class="st1" d="M36.2,48.1"/>
<line class="st3" x1="36.3" y1="50" x2="36.3" y2="50"/>
<polyline class="st3" points="36.4,47.3 36.3,49.5 36.3,50 "/>
<path class="st12" d="M14,38.6"/>
</svg>
