<svg xmlns="http://www.w3.org/2000/svg" xmlns:xlink="http://www.w3.org/1999/xlink" xml:space="preserve" id="Слой_1"
	x="0" y="0" style="enable-background:new 0 0 116.4 96.7" version="1.1" viewBox="0 0 116.4 96.7">
	<defs>
		<path id="reuse-0"
			d="M69.1 43.8c0 5.7-4.6 10.3-10.3 10.3-5.7 0-10.3-4.6-10.3-10.3 0-5.7 4.6-10.3 10.3-10.3 5.7 0 10.3 4.6 10.3 10.3z"
			class="st3" />
	</defs>
	<style>
		.st1 {
			fill: #7699ff
		}

		.st3 {
			fill: none
		}

		.st9 {
			fill: #5065a5
		}

		.st12 {
			fill: #273868
		}
	</style>
	<path id="_x37_b505434-05e4-4733-bd03-7559c80e23bc"
		d="M51.5 65.2c.3-1 .5-2 .6-3 1.3.1 2.9.1 4.6.1 0 1 0 2.1-.1 3.1-.9 6.7-10 11-10 11 1.2-1.5 1.9-3.3 2-5.2 1.1-2 2.1-4 2.9-6z"
		style="fill:#576fed" />
	<path
		d="M94.4 52.5s-2.1 5.1-13.9 7.8c-8.7 2-21.9 2-28.4 1.9-2.4 0-3.8-.1-3.8-.1s1.3 5.7-4.3 11.3c-3.1 3.4-7.4 5.3-12 5.3 0 0 3.3-4.6 4.3-7.8 2.5-1.9 7.8-8.7 7.8-8.7s-5.3-.5-6.8-4.7c-1-2.7-1-7.5-1-7.5v-.6c-1.3-.2-2.5.5-3.6 1.5-.5.7-.8 1.3-1.2 1.9-.2.3-.7 1.2-1.3 2.4-2.8 1.8-7.5 3.4-7.9 3.5.1-.2 1.3-3.4 2.5-5.9.3-.7.7-1.3 1-1.8 1.5-2.4 3.5-5.2 3.5-5.2v-.4l-.5-2.7-.3-1.5-.2-.9-1-5.6c1.4-.4 2.5-.7 3.6-.4.6.1 1.1.5 1.7 1 .4.3.7.6 1 1l.2.2c.2.2.8.9 3.1 2.5.3.5.6 1 1 1.5V40.2c0-.3 0-1 .1-1.9 0-.6.1-1.2.2-2 .4-2.4 1.2-5.6 3.2-8.4.6-.8 1.2-1.6 2-2.2.1-.1.3-.2.4-.3.2-.1.4-.2.5-.4.2-.2.5-.3.8-.4 1.9-1 4.2-1.4 6.4-1 1.1.4 2.2.7 3.3.9 1.1.2 2.6-.9 1.2-3.6 2.6.7 5 3.5 5 3.5s1.7-.9-.2-5.3c4.4.4 6.7 7.6 6.7 7.6 0-2.6.1-5.3.4-7.9 2.4 2.2 3.8 5.2 3.9 8.5 0 0 2.2 0 4.2 1.4.9.6 1.7 1.4 2.3 2.6.3.6.5 1.4.6 2.4.3 3.7-.7 9.5-1.3 12.9-.3 1.6-.5 2.6-.5 2.6l2 1.6 3.3-5.5 3.3 4.5.1-.5.1-.3 1.6-6s2.4 2.2 4.3 4.3c.1.1.2.2.3.4 1.1 1.4 1.9 3.1 2.3 4.8z"
		class="st1" />
	<circle id="_x32_4f5393d-4d01-4e9a-994e-955807d4b8cf" cx="58.8" cy="43.8" r="10.3" style="fill:#1d1d1b" />
	<use xlink:href="#reuse-0" class="st3" />
	<path id="ee505f71-9a0b-4df3-b358-d6d65d15bb5a"
		d="M66.9 43.5c-.3 2.5-1.7 4.8-3.8 6.3 1.3-1.3 2.1-2.9 2.3-4.7.5-3.4-1.8-6.6-5.2-7.2-.4-.1-.7-.1-1.1-.1-4.1.1-7.5 3.2-8.1 7.2-.1.3-.1.7-.1 1.1-.2-.9-.2-1.8-.1-2.7.6-4.5 4.5-7.9 9-8 3.9-.1 7.1 3 7.2 6.8-.1.5-.1.9-.1 1.3z"
		style="opacity:.1;fill:#fff;enable-background:new" />
	<path id="_x34_e30afb6-9b67-4416-9a10-73eb83fa54dc"
		d="M62.3 35.8c1.8.6 3.8 2.4 3 4.1-.6 1.2-2.5-.8-4.3-1.3s-4.5-.5-4-1.8c.8-1.9 3.5-1.6 5.3-1z"
		style="fill:#fff" />
	<path id="_x34_067f20d-e99a-4389-8852-6fcb31bee618"
		d="M86.3 50.2c-4.1.7-8.3.8-12.4.2l3-5.1 2.6 4 3-4.6 3.3 4.5 1.8-6.8 4.3 4.3c.5.6.9 2.3-5.6 3.5z"
		style="fill:#f76f60" />
	<g id="glasses">
		<path
			d="M78.6 32.8c-.2-.6-1.2-.2-1.6.6-.3.6-.4.9-.7 1.4-.8 1.1-3.7 1.1-5.5.8-1.4-.2-2.1-.1-3.2-.9-.7-.5-4.4-2.9-8.9-3-3.1-.1-6.1 1.2-6.9 1.7-4.2 2.4-4.1 5.5-5.4 6.5-3-1.6-5.8-2.8-8.1-3.7-.6-.2-1.2-.5-1.8-.6-.1 0-.2 0-.2-.1-.8-.2-1.5-.4-2-.5-.8-.1-1.3-.1-1.6.1-.1.1-.1.2-.1.3 0 .2.4.4 1.2.7.5.3 1.3.6 2.1 1 .7.3 1.5.7 2.3 1.2 3 1.6 6.3 4.1 7.7 7.7 1.2 2.9 1.6 4.3 3.5 6.2 2.6 2.7 5.8 3.6 7.8 3.7 1.9.1 5.5.3 8.8-1.8 4.1-2.7 5.3-8.1 5.4-8.9.5-2.5.1-2.3 1-3.4 2-2.1 4.6-1.1 5.7-1.5.5-.2.6-2.1.5-7.5zM58.8 54.1c-5.7 0-10.3-4.6-10.3-10.3 0-5.7 4.6-10.3 10.3-10.3 5.7 0 10.3 4.6 10.3 10.3 0 5.7-4.6 10.3-10.3 10.3z"
			style="fill:#ff8a09;stroke:#ff8a09;stroke-miterlimit:10" />
		<use xlink:href="#reuse-0" style="fill:none;stroke:#ff8a09;stroke-miterlimit:10" />
	</g>
	<g id="cloack">
		<path
			d="m39.7 51.5-.4-.4c-1.1-1-2.1-1.6-3-1.7-1.3-.2-2.5.5-3.6 1.5-.5.7-.8 1.3-1.2 1.9-.2.3-.7 1.2-1.3 2.4-2.6 4.6-8 13.8-8.1 13.4-.9-2.7-3-4.6-3.5-7.5-.2-1.1 0-2 .2-2.9 0-.1.1-.3.1-.4.5-.5 1-.9 1.5-1.3 1.5-1.3 3-2.6 4.4-3.8 1.8-1.5 3.5-3 5-4.3.7-.6 1.6-1.4 2.8-1.8.8-.2 1.6-.3 2.6-.1 1.2.3 2.4 1 3.4 1.8.2.2.5.4.7.6l.2.1.3 2.1c.2.4.1.6-.1.4z"
			class="st9" />
		<path
			d="m39.3 47.8-.1-.5-.2-1.1V46l-.1-.7-.6-3.5-.2-1-.2-.7V40l-.1-.3c0-.2-.1-.3-.1-.3-.3-.2-.6-.4-.8-.5-2.3-1.6-2.9-2.3-3.1-2.5l-.2-.2-1-1c-.6-.5-1.1-.9-1.7-1-1.1-.3-2.2.1-3.6.4-1.8.4-4 .8-7.1-.2-5.4-1-8.6-2.3-6.9 1.3.3.8 1.1 3.1 1.2 4.4v.2c.1 2 .1 4.1.6 6.1.4 1.7 1.1 3.2 1.9 4.2.2.3.5.6.7.9h.1c.8-.4 1.6-.8 2.3-1.2l1.8-.9c.7-.3 1.3-.7 1.9-1h.1c1.4-.8 2.8-1.5 4.1-2.2.2-.1.4-.2.7-.4.2-.1.3-.2.5-.3h.2l2.2.2h.1l5.8.4 1.1 1 .9.9-.2-.2zm-2.1-7.6s0 .1 0 0zm-.4.1v.1-.1c-.1 0 0 0 0 0z"
			class="st9" />
		<path d="m39.6 49.2-.1-.2.1.1z" style="fill:#f18a00" />
		<path
			d="M15.2 39.4c4.5 1 8.2 1.2 12.7.3l1.7-.3c4.3-.3 7.5 3.4 9.6 6.7h-.1c-2.2-2.9-5.4-6.3-9.3-5.9-2.8.5-5.6 1.2-8.5 1.2-2.3 0-4.6-.5-6.8-1l-.1-1.3.8.3z"
			class="st12" />
		<path
			d="m39.6 49.1-.2-.1c-1.2-1.1-2.6-2.1-4.1-2.5-1-.2-1.9-.2-2.6.1-1.3.4-2.2 1.2-2.8 1.8-3.1 2.7-6.7 5.8-10.9 9.4.1-.5.2-1.1.3-1.8.1-.8 0-1.5-.1-2.1-.2-1.1-1.5-2.6-1.5-2.6C22.1 49 26 47 29.2 45.2c.1-.1.2-.1.3-.2 1.1-.6 3.1-1.7 5.8-.5 1.6.7 3 1.9 4.1 3.2l.1.8.1.6z"
			class="st12" />
	</g>
	<path
		d="m40.5 51.7-.3.1c-.2 0-.4-.1-.4-.3l-.1-.3-.6-2.8-.3-1.4v-.1l-.5-2.4-1.1-5.2c0-.2.1-.4.2-.4l.3-.1c.2 0 .4.1.4.3l.1.3.1.4.1.3v.1l.2.7 2.3 10.4c-.1.2-.2.4-.4.4z"
		style="fill:#c8d6ff" />
	<g id="logo">
		<defs>
			<path id="SVGID_1_"
				d="M32.4 45.5c-8.2.4-9-.2-9.5-.4-.2-.1 1.8-.8 3.4-2.2.6-.5.5-.5 3.7-3.2 2 1.3 3.1 4.4 2.4 5.8z" />
		</defs>
		<use xlink:href="#SVGID_1_" style="overflow:visible;fill:#c8d6ff" />
		<clipPath id="SVGID_00000108269764739808610470000014176957505019964066_">
			<use xlink:href="#SVGID_1_" style="overflow:visible" />
		</clipPath>
		<path
			d="M14.6 39.5c4.5 1 8.8 1.2 13.3.3l1.7-.3c4.2-.3 7.5 3.4 9.5 6.6H39c-2.2-2.9-5.4-6.4-9.4-5.9-2.8.5-5.6 1.2-8.5 1.2-2.3 0-4.6-.5-6.8-1l.3-.9z"
			style="clip-path:url(#SVGID_00000108269764739808610470000014176957505019964066_);fill:#a3c2da" />
		<path d="M31.2 43.5s-.3-1.2-.8-1.6c-.6-.4-1.4 0-1.6.7-.2.8.2 1.1.2 1.6-.1 1.1-1.7.5-1.8.5-.2-.1-.4-.1-.8-.6"
			style="fill:none;stroke:#ff8a09;stroke-width:.5;stroke-miterlimit:10" />
		<g>
			<defs>
				<path id="SVGID_00000144314474249428521430000018205651373148978826_"
					d="M32.4 45.6c-8.2.4-9-.2-9.5-.4-.2-.1 1.8-.8 3.4-2.2.6-.5.5-.5 3.7-3.2 2.1 1.2 3.1 4.3 2.4 5.8z" />
			</defs>
			<clipPath id="SVGID_00000106828096711560561910000016587140345873064337_">
				<use xlink:href="#SVGID_00000144314474249428521430000018205651373148978826_" style="overflow:visible" />
			</clipPath>
			<path
				d="m39.5 49.1-.1-.1c-1.2-1.1-2.6-2.1-4.1-2.5-1-.2-1.9-.2-2.6.1-1.3.4-2.2 1.2-2.8 1.8-3.1 2.7-6.7 5.8-10.9 9.4.1-.5.2-1.1.3-1.8.1-.8 0-1.5-.1-2.1-.2-1.1-.8-1.8-1.3-2.5l-.1-.1C22.2 49 26 47 29.3 45.2c.1-.1.2-.1.3-.2 1.1-.6 3.1-1.7 5.8-.5 1.6.7 3 1.9 4.1 3.2l.1.8-.1.6z"
				style="clip-path:url(#SVGID_00000106828096711560561910000016587140345873064337_);fill:#a3c2da" />
		</g>
	</g>
	<path d="m36.4 47.3-.1 2.2v.5" class="st3" />
</svg>